G04 #@! TF.GenerationSoftware,KiCad,Pcbnew,9.0.8*
G04 #@! TF.CreationDate,2026-07-28T14:40:58-04:00*
G04 #@! TF.ProjectId,ESP32_Radio_Module,45535033-325f-4526-9164-696f5f4d6f64,rev?*
G04 #@! TF.SameCoordinates,Original*
G04 #@! TF.FileFunction,Copper,L1,Top*
G04 #@! TF.FilePolarity,Positive*
%FSLAX46Y46*%
G04 Gerber Fmt 4.6, Leading zero omitted, Abs format (unit mm)*
G04 Created by KiCad (PCBNEW 9.0.8) date 2026-07-28 14:40:58*
%MOMM*%
%LPD*%
G01*
G04 APERTURE LIST*
G04 Aperture macros list*
%AMRoundRect*
0 Rectangle with rounded corners*
0 $1 Rounding radius*
0 $2 $3 $4 $5 $6 $7 $8 $9 X,Y pos of 4 corners*
0 Add a 4 corners polygon primitive as box body*
4,1,4,$2,$3,$4,$5,$6,$7,$8,$9,$2,$3,0*
0 Add four circle primitives for the rounded corners*
1,1,$1+$1,$2,$3*
1,1,$1+$1,$4,$5*
1,1,$1+$1,$6,$7*
1,1,$1+$1,$8,$9*
0 Add four rect primitives between the rounded corners*
20,1,$1+$1,$2,$3,$4,$5,0*
20,1,$1+$1,$4,$5,$6,$7,0*
20,1,$1+$1,$6,$7,$8,$9,0*
20,1,$1+$1,$8,$9,$2,$3,0*%
G04 Aperture macros list end*
G04 #@! TA.AperFunction,ComponentPad*
%ADD10C,1.600000*%
G04 #@! TD*
G04 #@! TA.AperFunction,ComponentPad*
%ADD11R,1.270000X1.700000*%
G04 #@! TD*
G04 #@! TA.AperFunction,ComponentPad*
%ADD12C,1.700000*%
G04 #@! TD*
G04 #@! TA.AperFunction,ComponentPad*
%ADD13R,1.700000X1.700000*%
G04 #@! TD*
G04 #@! TA.AperFunction,SMDPad,CuDef*
%ADD14RoundRect,0.500000X1.500000X-0.500000X1.500000X0.500000X-1.500000X0.500000X-1.500000X-0.500000X0*%
G04 #@! TD*
G04 #@! TA.AperFunction,ComponentPad*
%ADD15RoundRect,0.250000X-0.550000X-0.550000X0.550000X-0.550000X0.550000X0.550000X-0.550000X0.550000X0*%
G04 #@! TD*
G04 #@! TA.AperFunction,Conductor*
%ADD16C,0.200000*%
G04 #@! TD*
G04 #@! TA.AperFunction,Conductor*
%ADD17C,0.127000*%
G04 #@! TD*
G04 APERTURE END LIST*
D10*
X89100000Y-79790000D03*
X89100000Y-87410000D03*
D11*
X123526000Y-47800000D03*
D12*
X121240000Y-47800000D03*
X118700000Y-47800000D03*
X116160000Y-47800000D03*
X113620000Y-47800000D03*
X111080000Y-47800000D03*
X108540000Y-47800000D03*
X106000000Y-47800000D03*
X103460000Y-47800000D03*
X100920000Y-47800000D03*
X98380000Y-47800000D03*
X95840000Y-47800000D03*
X93300000Y-47800000D03*
X90760000Y-47800000D03*
X88220000Y-47800000D03*
X88220000Y-72692000D03*
X90760000Y-72692000D03*
X93300000Y-72692000D03*
X95840000Y-72692000D03*
X98380000Y-72692000D03*
X100920000Y-72692000D03*
X103460000Y-72692000D03*
X106000000Y-72692000D03*
X108540000Y-72692000D03*
X111080000Y-72692000D03*
X113620000Y-72692000D03*
X116160000Y-72692000D03*
X118700000Y-72692000D03*
X121240000Y-72692000D03*
X123780000Y-72692000D03*
D13*
X150620000Y-53400000D03*
D12*
X148080000Y-53400000D03*
X145540000Y-53400000D03*
X143000000Y-53400000D03*
D10*
X148000000Y-60190000D03*
X148000000Y-67810000D03*
D14*
X160000000Y-67300000D03*
X160000000Y-71700000D03*
D12*
X94160000Y-95800000D03*
X91620000Y-95800000D03*
X89080000Y-95800000D03*
X86540000Y-95800000D03*
X84000000Y-95800000D03*
D14*
X160100000Y-62700000D03*
X160000000Y-76300000D03*
D10*
X142000000Y-60190000D03*
X142000000Y-67810000D03*
D14*
X160100000Y-58200000D03*
D15*
X145717621Y-77500000D03*
D10*
X148217621Y-77500000D03*
D13*
X110670000Y-78700000D03*
D12*
X113230000Y-78700000D03*
X115770000Y-78700000D03*
X118310000Y-78700000D03*
D14*
X160000000Y-80700000D03*
D13*
X160330000Y-85170000D03*
D12*
X157790000Y-85170000D03*
X155250000Y-85170000D03*
X152710000Y-85170000D03*
X148200000Y-85170000D03*
X145660000Y-85170000D03*
X141200000Y-85170000D03*
X138660000Y-85170000D03*
X136120000Y-85170000D03*
D16*
X89100000Y-95780000D02*
X89080000Y-95800000D01*
X89080000Y-87430000D02*
X89100000Y-87410000D01*
X89100000Y-87410000D02*
X89100000Y-95780000D01*
X86540000Y-95800000D02*
X86540000Y-74372000D01*
X89100000Y-79790000D02*
X89100000Y-73572000D01*
X148000000Y-67810000D02*
X140110000Y-75700000D01*
X142137552Y-75700000D02*
X140110000Y-75700000D01*
X110230000Y-75700000D02*
X113230000Y-78700000D01*
X89100000Y-73572000D02*
X88220000Y-72692000D01*
X86540000Y-74372000D02*
X88220000Y-72692000D01*
X91228000Y-75700000D02*
X110230000Y-75700000D01*
X140110000Y-75700000D02*
X134110000Y-75700000D01*
X88220000Y-72692000D02*
X91228000Y-75700000D01*
X134110000Y-75700000D02*
X110230000Y-75700000D01*
X150620000Y-67217552D02*
X142137552Y-75700000D01*
X150620000Y-53400000D02*
X150620000Y-67217552D01*
X142000000Y-67810000D02*
X134110000Y-75700000D01*
X142000000Y-56940000D02*
X142000000Y-60190000D01*
X121240000Y-73330000D02*
X121240000Y-72692000D01*
X145540000Y-53400000D02*
X142000000Y-56940000D01*
X148080000Y-60110000D02*
X148000000Y-60190000D01*
X148080000Y-53400000D02*
X148080000Y-60110000D01*
D17*
X148000000Y-53480000D02*
X148080000Y-53400000D01*
D16*
X160000000Y-71700000D02*
X155250000Y-76450000D01*
X155250000Y-76450000D02*
X155250000Y-85170000D01*
X160000000Y-67300000D02*
X152710000Y-74590000D01*
X152710000Y-74590000D02*
X152710000Y-85170000D01*
X160000000Y-76300000D02*
X156940000Y-79360000D01*
X156940000Y-79360000D02*
X156940000Y-84320000D01*
X156940000Y-84320000D02*
X157790000Y-85170000D01*
X160000000Y-84840000D02*
X160330000Y-85170000D01*
X160000000Y-80700000D02*
X160000000Y-84840000D01*
X89600000Y-103100000D02*
X81800000Y-103100000D01*
X91620000Y-101080000D02*
X89600000Y-103100000D01*
X91620000Y-95800000D02*
X91620000Y-101080000D01*
X80300000Y-101600000D02*
X80300000Y-76040000D01*
X80300000Y-76040000D02*
X108540000Y-47800000D01*
X81800000Y-103100000D02*
X80300000Y-101600000D01*
X148217621Y-74582379D02*
X160100000Y-62700000D01*
X147700000Y-85100000D02*
X147630000Y-85170000D01*
X148217621Y-77500000D02*
X148217621Y-85152379D01*
X148217621Y-85152379D02*
X148200000Y-85170000D01*
X148217621Y-77500000D02*
X148217621Y-74582379D01*
X145717621Y-85112379D02*
X145660000Y-85170000D01*
X145717621Y-77500000D02*
X145717621Y-72582379D01*
X160100000Y-58600000D02*
X160100000Y-58200000D01*
X145717621Y-77500000D02*
X145717621Y-85112379D01*
X145200000Y-85060000D02*
X145090000Y-85170000D01*
X145717621Y-72582379D02*
X160100000Y-58200000D01*
X110994922Y-47800000D02*
X111080000Y-47800000D01*
G04 #@! TA.AperFunction,Conductor*
G36*
X162642539Y-45520185D02*
G01*
X162688294Y-45572989D01*
X162699500Y-45624500D01*
X162699500Y-57138752D01*
X162679815Y-57205791D01*
X162627011Y-57251546D01*
X162557853Y-57261490D01*
X162494297Y-57232465D01*
X162465593Y-57196166D01*
X162439698Y-57146593D01*
X162343862Y-57029059D01*
X162311109Y-56988890D01*
X162195933Y-56894977D01*
X162153407Y-56860302D01*
X161973049Y-56766091D01*
X161973048Y-56766090D01*
X161973045Y-56766089D01*
X161855829Y-56732550D01*
X161777418Y-56710114D01*
X161777415Y-56710113D01*
X161777413Y-56710113D01*
X161711102Y-56704217D01*
X161658037Y-56699500D01*
X161658032Y-56699500D01*
X158541971Y-56699500D01*
X158541965Y-56699500D01*
X158541964Y-56699501D01*
X158530316Y-56700536D01*
X158422584Y-56710113D01*
X158226954Y-56766089D01*
X158136772Y-56813196D01*
X158046593Y-56860302D01*
X158046591Y-56860303D01*
X158046590Y-56860304D01*
X157888890Y-56988890D01*
X157766695Y-57138752D01*
X157760302Y-57146593D01*
X157729380Y-57205791D01*
X157666089Y-57326954D01*
X157610114Y-57522583D01*
X157610113Y-57522586D01*
X157599500Y-57641966D01*
X157599500Y-58758028D01*
X157599501Y-58758034D01*
X157610113Y-58877415D01*
X157666089Y-59073045D01*
X157666090Y-59073048D01*
X157666091Y-59073049D01*
X157760302Y-59253407D01*
X157885811Y-59407332D01*
X157912920Y-59471727D01*
X157900911Y-59540557D01*
X157877390Y-59573373D01*
X151432181Y-66018583D01*
X151370858Y-66052068D01*
X151301166Y-66047084D01*
X151245233Y-66005212D01*
X151220816Y-65939748D01*
X151220500Y-65930902D01*
X151220500Y-54874499D01*
X151240185Y-54807460D01*
X151292989Y-54761705D01*
X151344500Y-54750499D01*
X151517871Y-54750499D01*
X151517872Y-54750499D01*
X151577483Y-54744091D01*
X151712331Y-54693796D01*
X151827546Y-54607546D01*
X151913796Y-54492331D01*
X151964091Y-54357483D01*
X151970500Y-54297873D01*
X151970499Y-52502128D01*
X151964091Y-52442517D01*
X151962810Y-52439083D01*
X151913797Y-52307671D01*
X151913793Y-52307664D01*
X151827547Y-52192455D01*
X151827544Y-52192452D01*
X151712335Y-52106206D01*
X151712328Y-52106202D01*
X151577482Y-52055908D01*
X151577483Y-52055908D01*
X151517883Y-52049501D01*
X151517881Y-52049500D01*
X151517873Y-52049500D01*
X151517864Y-52049500D01*
X149722129Y-52049500D01*
X149722123Y-52049501D01*
X149662516Y-52055908D01*
X149527671Y-52106202D01*
X149527664Y-52106206D01*
X149412455Y-52192452D01*
X149412452Y-52192455D01*
X149326206Y-52307664D01*
X149326203Y-52307669D01*
X149277189Y-52439083D01*
X149235317Y-52495016D01*
X149169853Y-52519433D01*
X149101580Y-52504581D01*
X149073326Y-52483430D01*
X148959786Y-52369890D01*
X148787820Y-52244951D01*
X148598414Y-52148444D01*
X148598413Y-52148443D01*
X148598412Y-52148443D01*
X148396243Y-52082754D01*
X148396241Y-52082753D01*
X148396240Y-52082753D01*
X148234957Y-52057208D01*
X148186287Y-52049500D01*
X147973713Y-52049500D01*
X147925042Y-52057208D01*
X147763760Y-52082753D01*
X147561585Y-52148444D01*
X147372179Y-52244951D01*
X147200213Y-52369890D01*
X147049890Y-52520213D01*
X146924949Y-52692182D01*
X146920484Y-52700946D01*
X146872509Y-52751742D01*
X146804688Y-52768536D01*
X146738553Y-52745998D01*
X146699516Y-52700946D01*
X146695050Y-52692182D01*
X146570109Y-52520213D01*
X146419786Y-52369890D01*
X146247820Y-52244951D01*
X146058414Y-52148444D01*
X146058413Y-52148443D01*
X146058412Y-52148443D01*
X145856243Y-52082754D01*
X145856241Y-52082753D01*
X145856240Y-52082753D01*
X145694957Y-52057208D01*
X145646287Y-52049500D01*
X145433713Y-52049500D01*
X145385042Y-52057208D01*
X145223760Y-52082753D01*
X145021585Y-52148444D01*
X144832179Y-52244951D01*
X144660213Y-52369890D01*
X144509890Y-52520213D01*
X144384949Y-52692182D01*
X144380202Y-52701499D01*
X144332227Y-52752293D01*
X144264405Y-52769087D01*
X144198271Y-52746548D01*
X144159234Y-52701495D01*
X144154626Y-52692452D01*
X144115270Y-52638282D01*
X144115269Y-52638282D01*
X143400000Y-53353553D01*
X143400000Y-53347339D01*
X143372741Y-53245606D01*
X143320080Y-53154394D01*
X143245606Y-53079920D01*
X143154394Y-53027259D01*
X143052661Y-53000000D01*
X143046447Y-53000000D01*
X143761716Y-52284728D01*
X143707550Y-52245375D01*
X143518217Y-52148904D01*
X143316129Y-52083242D01*
X143106246Y-52050000D01*
X142893754Y-52050000D01*
X142683872Y-52083242D01*
X142683869Y-52083242D01*
X142481782Y-52148904D01*
X142292439Y-52245380D01*
X142238282Y-52284727D01*
X142238282Y-52284728D01*
X142953554Y-53000000D01*
X142947339Y-53000000D01*
X142845606Y-53027259D01*
X142754394Y-53079920D01*
X142679920Y-53154394D01*
X142627259Y-53245606D01*
X142600000Y-53347339D01*
X142600000Y-53353554D01*
X141884728Y-52638282D01*
X141884727Y-52638282D01*
X141845380Y-52692439D01*
X141748904Y-52881782D01*
X141683242Y-53083869D01*
X141683242Y-53083872D01*
X141650000Y-53293753D01*
X141650000Y-53506246D01*
X141683242Y-53716127D01*
X141683242Y-53716130D01*
X141748904Y-53918217D01*
X141845375Y-54107550D01*
X141884728Y-54161716D01*
X142600000Y-53446445D01*
X142600000Y-53452661D01*
X142627259Y-53554394D01*
X142679920Y-53645606D01*
X142754394Y-53720080D01*
X142845606Y-53772741D01*
X142947339Y-53800000D01*
X142953553Y-53800000D01*
X142238282Y-54515269D01*
X142238282Y-54515270D01*
X142292449Y-54554624D01*
X142481782Y-54651095D01*
X142683870Y-54716757D01*
X142893754Y-54750000D01*
X143041401Y-54750000D01*
X143108440Y-54769685D01*
X143154195Y-54822489D01*
X143164139Y-54891647D01*
X143135114Y-54955203D01*
X143129082Y-54961681D01*
X141631286Y-56459478D01*
X141519481Y-56571282D01*
X141519479Y-56571285D01*
X141469361Y-56658094D01*
X141469359Y-56658096D01*
X141440425Y-56708209D01*
X141440424Y-56708210D01*
X141440423Y-56708215D01*
X141399499Y-56860943D01*
X141399499Y-56860945D01*
X141399499Y-57029046D01*
X141399500Y-57029059D01*
X141399500Y-58960397D01*
X141379815Y-59027436D01*
X141331800Y-59070879D01*
X141318389Y-59077712D01*
X141152786Y-59198028D01*
X141008028Y-59342786D01*
X140887715Y-59508386D01*
X140794781Y-59690776D01*
X140731522Y-59885465D01*
X140699500Y-60087648D01*
X140699500Y-60292351D01*
X140731522Y-60494534D01*
X140794781Y-60689223D01*
X140887715Y-60871613D01*
X141008028Y-61037213D01*
X141152786Y-61181971D01*
X141307749Y-61294556D01*
X141318390Y-61302287D01*
X141432251Y-61360302D01*
X141500776Y-61395218D01*
X141500778Y-61395218D01*
X141500781Y-61395220D01*
X141605137Y-61429127D01*
X141695465Y-61458477D01*
X141796557Y-61474488D01*
X141897648Y-61490500D01*
X141897649Y-61490500D01*
X142102351Y-61490500D01*
X142102352Y-61490500D01*
X142304534Y-61458477D01*
X142499219Y-61395220D01*
X142681610Y-61302287D01*
X142774590Y-61234732D01*
X142847213Y-61181971D01*
X142847215Y-61181968D01*
X142847219Y-61181966D01*
X142991966Y-61037219D01*
X142991968Y-61037215D01*
X142991971Y-61037213D01*
X143044732Y-60964590D01*
X143112287Y-60871610D01*
X143205220Y-60689219D01*
X143268477Y-60494534D01*
X143300500Y-60292352D01*
X143300500Y-60087648D01*
X143268477Y-59885466D01*
X143205220Y-59690781D01*
X143205218Y-59690778D01*
X143205218Y-59690776D01*
X143171503Y-59624607D01*
X143112287Y-59508390D01*
X143085650Y-59471727D01*
X142991971Y-59342786D01*
X142847213Y-59198028D01*
X142681610Y-59077712D01*
X142668200Y-59070879D01*
X142617406Y-59022903D01*
X142600500Y-58960397D01*
X142600500Y-57240096D01*
X142620185Y-57173057D01*
X142636814Y-57152420D01*
X145055478Y-54733755D01*
X145116799Y-54700272D01*
X145181473Y-54703506D01*
X145223757Y-54717246D01*
X145433713Y-54750500D01*
X145433714Y-54750500D01*
X145646286Y-54750500D01*
X145646287Y-54750500D01*
X145856243Y-54717246D01*
X146058412Y-54651557D01*
X146247816Y-54555051D01*
X146334138Y-54492335D01*
X146419786Y-54430109D01*
X146419788Y-54430106D01*
X146419792Y-54430104D01*
X146570104Y-54279792D01*
X146570106Y-54279788D01*
X146570109Y-54279786D01*
X146695048Y-54107820D01*
X146695047Y-54107820D01*
X146695051Y-54107816D01*
X146699514Y-54099054D01*
X146747488Y-54048259D01*
X146815308Y-54031463D01*
X146881444Y-54053999D01*
X146920486Y-54099056D01*
X146924951Y-54107820D01*
X147049890Y-54279786D01*
X147200213Y-54430109D01*
X147372184Y-54555051D01*
X147372184Y-54555052D01*
X147411793Y-54575233D01*
X147462590Y-54623206D01*
X147479500Y-54685718D01*
X147479500Y-58919635D01*
X147459815Y-58986674D01*
X147411796Y-59030119D01*
X147318388Y-59077713D01*
X147152786Y-59198028D01*
X147008028Y-59342786D01*
X146887715Y-59508386D01*
X146794781Y-59690776D01*
X146731522Y-59885465D01*
X146699500Y-60087648D01*
X146699500Y-60292351D01*
X146731522Y-60494534D01*
X146794781Y-60689223D01*
X146887715Y-60871613D01*
X147008028Y-61037213D01*
X147152786Y-61181971D01*
X147307749Y-61294556D01*
X147318390Y-61302287D01*
X147432251Y-61360302D01*
X147500776Y-61395218D01*
X147500778Y-61395218D01*
X147500781Y-61395220D01*
X147605137Y-61429127D01*
X147695465Y-61458477D01*
X147796557Y-61474488D01*
X147897648Y-61490500D01*
X147897649Y-61490500D01*
X148102351Y-61490500D01*
X148102352Y-61490500D01*
X148304534Y-61458477D01*
X148499219Y-61395220D01*
X148681610Y-61302287D01*
X148774590Y-61234732D01*
X148847213Y-61181971D01*
X148847215Y-61181968D01*
X148847219Y-61181966D01*
X148991966Y-61037219D01*
X148991968Y-61037215D01*
X148991971Y-61037213D01*
X149044732Y-60964590D01*
X149112287Y-60871610D01*
X149205220Y-60689219D01*
X149268477Y-60494534D01*
X149300500Y-60292352D01*
X149300500Y-60087648D01*
X149268477Y-59885466D01*
X149205220Y-59690781D01*
X149205218Y-59690778D01*
X149205218Y-59690776D01*
X149171503Y-59624607D01*
X149112287Y-59508390D01*
X149085650Y-59471727D01*
X148991971Y-59342786D01*
X148847219Y-59198034D01*
X148795732Y-59160627D01*
X148731614Y-59114042D01*
X148688949Y-59058714D01*
X148680500Y-59013725D01*
X148680500Y-54685718D01*
X148700185Y-54618679D01*
X148748207Y-54575233D01*
X148787815Y-54555052D01*
X148787815Y-54555051D01*
X148787816Y-54555051D01*
X148959792Y-54430104D01*
X149073329Y-54316566D01*
X149134648Y-54283084D01*
X149204340Y-54288068D01*
X149260274Y-54329939D01*
X149277189Y-54360917D01*
X149326202Y-54492328D01*
X149326206Y-54492335D01*
X149412452Y-54607544D01*
X149412455Y-54607547D01*
X149527664Y-54693793D01*
X149527671Y-54693797D01*
X149572618Y-54710561D01*
X149662517Y-54744091D01*
X149722127Y-54750500D01*
X149895500Y-54750499D01*
X149962539Y-54770183D01*
X150008294Y-54822987D01*
X150019500Y-54874499D01*
X150019500Y-66917454D01*
X149999815Y-66984493D01*
X149983181Y-67005135D01*
X149464132Y-67524183D01*
X149402809Y-67557668D01*
X149333117Y-67552684D01*
X149277184Y-67510812D01*
X149258520Y-67474821D01*
X149205218Y-67310776D01*
X149171503Y-67244607D01*
X149112287Y-67128390D01*
X149104556Y-67117749D01*
X148991971Y-66962786D01*
X148847213Y-66818028D01*
X148681613Y-66697715D01*
X148681612Y-66697714D01*
X148681610Y-66697713D01*
X148624653Y-66668691D01*
X148499223Y-66604781D01*
X148304534Y-66541522D01*
X148129995Y-66513878D01*
X148102352Y-66509500D01*
X147897648Y-66509500D01*
X147873329Y-66513351D01*
X147695465Y-66541522D01*
X147500776Y-66604781D01*
X147318386Y-66697715D01*
X147152786Y-66818028D01*
X147008028Y-66962786D01*
X146887715Y-67128386D01*
X146794781Y-67310776D01*
X146731522Y-67505465D01*
X146699500Y-67707648D01*
X146699500Y-67912351D01*
X146731522Y-68114534D01*
X146736173Y-68128848D01*
X146738165Y-68198690D01*
X146705921Y-68254842D01*
X139897584Y-75063181D01*
X139836261Y-75096666D01*
X139809903Y-75099500D01*
X135859097Y-75099500D01*
X135792058Y-75079815D01*
X135746303Y-75027011D01*
X135736359Y-74957853D01*
X135765384Y-74894297D01*
X135771416Y-74887819D01*
X137205519Y-73453716D01*
X141555158Y-69104075D01*
X141616479Y-69070592D01*
X141681151Y-69073825D01*
X141695466Y-69078477D01*
X141897648Y-69110500D01*
X141897649Y-69110500D01*
X142102351Y-69110500D01*
X142102352Y-69110500D01*
X142304534Y-69078477D01*
X142499219Y-69015220D01*
X142681610Y-68922287D01*
X142799249Y-68836818D01*
X142847213Y-68801971D01*
X142847215Y-68801968D01*
X142847219Y-68801966D01*
X142991966Y-68657219D01*
X142991968Y-68657215D01*
X142991971Y-68657213D01*
X143098120Y-68511109D01*
X143112287Y-68491610D01*
X143205220Y-68309219D01*
X143268477Y-68114534D01*
X143300500Y-67912352D01*
X143300500Y-67707648D01*
X143268477Y-67505466D01*
X143205220Y-67310781D01*
X143205218Y-67310778D01*
X143205218Y-67310776D01*
X143171503Y-67244607D01*
X143112287Y-67128390D01*
X143104556Y-67117749D01*
X142991971Y-66962786D01*
X142847213Y-66818028D01*
X142681613Y-66697715D01*
X142681612Y-66697714D01*
X142681610Y-66697713D01*
X142624653Y-66668691D01*
X142499223Y-66604781D01*
X142304534Y-66541522D01*
X142129995Y-66513878D01*
X142102352Y-66509500D01*
X141897648Y-66509500D01*
X141873329Y-66513351D01*
X141695465Y-66541522D01*
X141500776Y-66604781D01*
X141318386Y-66697715D01*
X141152786Y-66818028D01*
X141008028Y-66962786D01*
X140887715Y-67128386D01*
X140794781Y-67310776D01*
X140731522Y-67505465D01*
X140699500Y-67707648D01*
X140699500Y-67912351D01*
X140731522Y-68114534D01*
X140736173Y-68128848D01*
X140738165Y-68198690D01*
X140705921Y-68254842D01*
X133897584Y-75063181D01*
X133836261Y-75096666D01*
X133809903Y-75099500D01*
X110309061Y-75099500D01*
X110309057Y-75099499D01*
X110150943Y-75099499D01*
X110150939Y-75099500D01*
X91528097Y-75099500D01*
X91461058Y-75079815D01*
X91440416Y-75063181D01*
X90630916Y-74253681D01*
X90597431Y-74192358D01*
X90602415Y-74122666D01*
X90644287Y-74066733D01*
X90709751Y-74042316D01*
X90718597Y-74042000D01*
X90866246Y-74042000D01*
X91076127Y-74008757D01*
X91076130Y-74008757D01*
X91278217Y-73943095D01*
X91467554Y-73846622D01*
X91521716Y-73807270D01*
X91521717Y-73807270D01*
X90806446Y-73092000D01*
X90812661Y-73092000D01*
X90914394Y-73064741D01*
X91005606Y-73012080D01*
X91080080Y-72937606D01*
X91132741Y-72846394D01*
X91160000Y-72744661D01*
X91160000Y-72738446D01*
X91875270Y-73453717D01*
X91875270Y-73453716D01*
X91914622Y-73399555D01*
X91919232Y-73390507D01*
X91967205Y-73339709D01*
X92035025Y-73322912D01*
X92101161Y-73345447D01*
X92140204Y-73390504D01*
X92144949Y-73399817D01*
X92269890Y-73571786D01*
X92420213Y-73722109D01*
X92592179Y-73847048D01*
X92592181Y-73847049D01*
X92592184Y-73847051D01*
X92781588Y-73943557D01*
X92983757Y-74009246D01*
X93193713Y-74042500D01*
X93193714Y-74042500D01*
X93406286Y-74042500D01*
X93406287Y-74042500D01*
X93616243Y-74009246D01*
X93818412Y-73943557D01*
X94007816Y-73847051D01*
X94098252Y-73781346D01*
X94179786Y-73722109D01*
X94179788Y-73722106D01*
X94179792Y-73722104D01*
X94330104Y-73571792D01*
X94330106Y-73571788D01*
X94330109Y-73571786D01*
X94455048Y-73399820D01*
X94455050Y-73399817D01*
X94455051Y-73399816D01*
X94459514Y-73391054D01*
X94507488Y-73340259D01*
X94575308Y-73323463D01*
X94641444Y-73345999D01*
X94680486Y-73391056D01*
X94684951Y-73399820D01*
X94809890Y-73571786D01*
X94960213Y-73722109D01*
X95132179Y-73847048D01*
X95132181Y-73847049D01*
X95132184Y-73847051D01*
X95321588Y-73943557D01*
X95523757Y-74009246D01*
X95733713Y-74042500D01*
X95733714Y-74042500D01*
X95946286Y-74042500D01*
X95946287Y-74042500D01*
X96156243Y-74009246D01*
X96358412Y-73943557D01*
X96547816Y-73847051D01*
X96638252Y-73781346D01*
X96719786Y-73722109D01*
X96719788Y-73722106D01*
X96719792Y-73722104D01*
X96870104Y-73571792D01*
X96870106Y-73571788D01*
X96870109Y-73571786D01*
X96995048Y-73399820D01*
X96995050Y-73399817D01*
X96995051Y-73399816D01*
X96999514Y-73391054D01*
X97047488Y-73340259D01*
X97115308Y-73323463D01*
X97181444Y-73345999D01*
X97220486Y-73391056D01*
X97224951Y-73399820D01*
X97349890Y-73571786D01*
X97500213Y-73722109D01*
X97672179Y-73847048D01*
X97672181Y-73847049D01*
X97672184Y-73847051D01*
X97861588Y-73943557D01*
X98063757Y-74009246D01*
X98273713Y-74042500D01*
X98273714Y-74042500D01*
X98486286Y-74042500D01*
X98486287Y-74042500D01*
X98696243Y-74009246D01*
X98898412Y-73943557D01*
X99087816Y-73847051D01*
X99178252Y-73781346D01*
X99259786Y-73722109D01*
X99259788Y-73722106D01*
X99259792Y-73722104D01*
X99410104Y-73571792D01*
X99410106Y-73571788D01*
X99410109Y-73571786D01*
X99535048Y-73399820D01*
X99535050Y-73399817D01*
X99535051Y-73399816D01*
X99539514Y-73391054D01*
X99587488Y-73340259D01*
X99655308Y-73323463D01*
X99721444Y-73345999D01*
X99760486Y-73391056D01*
X99764951Y-73399820D01*
X99889890Y-73571786D01*
X100040213Y-73722109D01*
X100212179Y-73847048D01*
X100212181Y-73847049D01*
X100212184Y-73847051D01*
X100401588Y-73943557D01*
X100603757Y-74009246D01*
X100813713Y-74042500D01*
X100813714Y-74042500D01*
X101026286Y-74042500D01*
X101026287Y-74042500D01*
X101236243Y-74009246D01*
X101438412Y-73943557D01*
X101627816Y-73847051D01*
X101718252Y-73781346D01*
X101799786Y-73722109D01*
X101799788Y-73722106D01*
X101799792Y-73722104D01*
X101950104Y-73571792D01*
X101950106Y-73571788D01*
X101950109Y-73571786D01*
X102075048Y-73399820D01*
X102075050Y-73399817D01*
X102075051Y-73399816D01*
X102079514Y-73391054D01*
X102127488Y-73340259D01*
X102195308Y-73323463D01*
X102261444Y-73345999D01*
X102300486Y-73391056D01*
X102304951Y-73399820D01*
X102429890Y-73571786D01*
X102580213Y-73722109D01*
X102752179Y-73847048D01*
X102752181Y-73847049D01*
X102752184Y-73847051D01*
X102941588Y-73943557D01*
X103143757Y-74009246D01*
X103353713Y-74042500D01*
X103353714Y-74042500D01*
X103566286Y-74042500D01*
X103566287Y-74042500D01*
X103776243Y-74009246D01*
X103978412Y-73943557D01*
X104167816Y-73847051D01*
X104258252Y-73781346D01*
X104339786Y-73722109D01*
X104339788Y-73722106D01*
X104339792Y-73722104D01*
X104490104Y-73571792D01*
X104490106Y-73571788D01*
X104490109Y-73571786D01*
X104615048Y-73399820D01*
X104615050Y-73399817D01*
X104615051Y-73399816D01*
X104619514Y-73391054D01*
X104667488Y-73340259D01*
X104735308Y-73323463D01*
X104801444Y-73345999D01*
X104840486Y-73391056D01*
X104844951Y-73399820D01*
X104969890Y-73571786D01*
X105120213Y-73722109D01*
X105292179Y-73847048D01*
X105292181Y-73847049D01*
X105292184Y-73847051D01*
X105481588Y-73943557D01*
X105683757Y-74009246D01*
X105893713Y-74042500D01*
X105893714Y-74042500D01*
X106106286Y-74042500D01*
X106106287Y-74042500D01*
X106316243Y-74009246D01*
X106518412Y-73943557D01*
X106707816Y-73847051D01*
X106798252Y-73781346D01*
X106879786Y-73722109D01*
X106879788Y-73722106D01*
X106879792Y-73722104D01*
X107030104Y-73571792D01*
X107030106Y-73571788D01*
X107030109Y-73571786D01*
X107155048Y-73399820D01*
X107155050Y-73399817D01*
X107155051Y-73399816D01*
X107159514Y-73391054D01*
X107207488Y-73340259D01*
X107275308Y-73323463D01*
X107341444Y-73345999D01*
X107380486Y-73391056D01*
X107384951Y-73399820D01*
X107509890Y-73571786D01*
X107660213Y-73722109D01*
X107832179Y-73847048D01*
X107832181Y-73847049D01*
X107832184Y-73847051D01*
X108021588Y-73943557D01*
X108223757Y-74009246D01*
X108433713Y-74042500D01*
X108433714Y-74042500D01*
X108646286Y-74042500D01*
X108646287Y-74042500D01*
X108856243Y-74009246D01*
X109058412Y-73943557D01*
X109247816Y-73847051D01*
X109338252Y-73781346D01*
X109419786Y-73722109D01*
X109419788Y-73722106D01*
X109419792Y-73722104D01*
X109570104Y-73571792D01*
X109570106Y-73571788D01*
X109570109Y-73571786D01*
X109695048Y-73399820D01*
X109695050Y-73399817D01*
X109695051Y-73399816D01*
X109699514Y-73391054D01*
X109747488Y-73340259D01*
X109815308Y-73323463D01*
X109881444Y-73345999D01*
X109920486Y-73391056D01*
X109924951Y-73399820D01*
X110049890Y-73571786D01*
X110200213Y-73722109D01*
X110372179Y-73847048D01*
X110372181Y-73847049D01*
X110372184Y-73847051D01*
X110561588Y-73943557D01*
X110763757Y-74009246D01*
X110973713Y-74042500D01*
X110973714Y-74042500D01*
X111186286Y-74042500D01*
X111186287Y-74042500D01*
X111396243Y-74009246D01*
X111598412Y-73943557D01*
X111787816Y-73847051D01*
X111878252Y-73781346D01*
X111959786Y-73722109D01*
X111959788Y-73722106D01*
X111959792Y-73722104D01*
X112110104Y-73571792D01*
X112110106Y-73571788D01*
X112110109Y-73571786D01*
X112235048Y-73399820D01*
X112235050Y-73399817D01*
X112235051Y-73399816D01*
X112239514Y-73391054D01*
X112287488Y-73340259D01*
X112355308Y-73323463D01*
X112421444Y-73345999D01*
X112460486Y-73391056D01*
X112464951Y-73399820D01*
X112589890Y-73571786D01*
X112740213Y-73722109D01*
X112912179Y-73847048D01*
X112912181Y-73847049D01*
X112912184Y-73847051D01*
X113101588Y-73943557D01*
X113303757Y-74009246D01*
X113513713Y-74042500D01*
X113513714Y-74042500D01*
X113726286Y-74042500D01*
X113726287Y-74042500D01*
X113936243Y-74009246D01*
X114138412Y-73943557D01*
X114327816Y-73847051D01*
X114418252Y-73781346D01*
X114499786Y-73722109D01*
X114499788Y-73722106D01*
X114499792Y-73722104D01*
X114650104Y-73571792D01*
X114650106Y-73571788D01*
X114650109Y-73571786D01*
X114775048Y-73399820D01*
X114775050Y-73399817D01*
X114775051Y-73399816D01*
X114779514Y-73391054D01*
X114827488Y-73340259D01*
X114895308Y-73323463D01*
X114961444Y-73345999D01*
X115000486Y-73391056D01*
X115004951Y-73399820D01*
X115129890Y-73571786D01*
X115280213Y-73722109D01*
X115452179Y-73847048D01*
X115452181Y-73847049D01*
X115452184Y-73847051D01*
X115641588Y-73943557D01*
X115843757Y-74009246D01*
X116053713Y-74042500D01*
X116053714Y-74042500D01*
X116266286Y-74042500D01*
X116266287Y-74042500D01*
X116476243Y-74009246D01*
X116678412Y-73943557D01*
X116867816Y-73847051D01*
X116958252Y-73781346D01*
X117039786Y-73722109D01*
X117039788Y-73722106D01*
X117039792Y-73722104D01*
X117190104Y-73571792D01*
X117190106Y-73571788D01*
X117190109Y-73571786D01*
X117315048Y-73399820D01*
X117315050Y-73399817D01*
X117315051Y-73399816D01*
X117319514Y-73391054D01*
X117367488Y-73340259D01*
X117435308Y-73323463D01*
X117501444Y-73345999D01*
X117540486Y-73391056D01*
X117544951Y-73399820D01*
X117669890Y-73571786D01*
X117820213Y-73722109D01*
X117992179Y-73847048D01*
X117992181Y-73847049D01*
X117992184Y-73847051D01*
X118181588Y-73943557D01*
X118383757Y-74009246D01*
X118593713Y-74042500D01*
X118593714Y-74042500D01*
X118806286Y-74042500D01*
X118806287Y-74042500D01*
X119016243Y-74009246D01*
X119218412Y-73943557D01*
X119407816Y-73847051D01*
X119498252Y-73781346D01*
X119579786Y-73722109D01*
X119579788Y-73722106D01*
X119579792Y-73722104D01*
X119730104Y-73571792D01*
X119730106Y-73571788D01*
X119730109Y-73571786D01*
X119855048Y-73399820D01*
X119855050Y-73399817D01*
X119855051Y-73399816D01*
X119859514Y-73391054D01*
X119907488Y-73340259D01*
X119975308Y-73323463D01*
X120041444Y-73345999D01*
X120080486Y-73391056D01*
X120084951Y-73399820D01*
X120209890Y-73571786D01*
X120360213Y-73722109D01*
X120532179Y-73847048D01*
X120532181Y-73847049D01*
X120532184Y-73847051D01*
X120721588Y-73943557D01*
X120923757Y-74009246D01*
X121133713Y-74042500D01*
X121133714Y-74042500D01*
X121346286Y-74042500D01*
X121346287Y-74042500D01*
X121556243Y-74009246D01*
X121758412Y-73943557D01*
X121947816Y-73847051D01*
X122038252Y-73781346D01*
X122119786Y-73722109D01*
X122119788Y-73722106D01*
X122119792Y-73722104D01*
X122270104Y-73571792D01*
X122270106Y-73571788D01*
X122270109Y-73571786D01*
X122395048Y-73399820D01*
X122395050Y-73399817D01*
X122395051Y-73399816D01*
X122399514Y-73391054D01*
X122447488Y-73340259D01*
X122515308Y-73323463D01*
X122581444Y-73345999D01*
X122620486Y-73391056D01*
X122624951Y-73399820D01*
X122749890Y-73571786D01*
X122900213Y-73722109D01*
X123072179Y-73847048D01*
X123072181Y-73847049D01*
X123072184Y-73847051D01*
X123261588Y-73943557D01*
X123463757Y-74009246D01*
X123673713Y-74042500D01*
X123673714Y-74042500D01*
X123886286Y-74042500D01*
X123886287Y-74042500D01*
X124096243Y-74009246D01*
X124298412Y-73943557D01*
X124487816Y-73847051D01*
X124578252Y-73781346D01*
X124659786Y-73722109D01*
X124659788Y-73722106D01*
X124659792Y-73722104D01*
X124810104Y-73571792D01*
X124810106Y-73571788D01*
X124810109Y-73571786D01*
X124935048Y-73399820D01*
X124935050Y-73399817D01*
X124935051Y-73399816D01*
X125031557Y-73210412D01*
X125097246Y-73008243D01*
X125130500Y-72798287D01*
X125130500Y-72585713D01*
X125097246Y-72375757D01*
X125031557Y-72173588D01*
X124935051Y-71984184D01*
X124935049Y-71984181D01*
X124935048Y-71984179D01*
X124810109Y-71812213D01*
X124659786Y-71661890D01*
X124487820Y-71536951D01*
X124298414Y-71440444D01*
X124298413Y-71440443D01*
X124298412Y-71440443D01*
X124096243Y-71374754D01*
X124096241Y-71374753D01*
X124096240Y-71374753D01*
X123934957Y-71349208D01*
X123886287Y-71341500D01*
X123673713Y-71341500D01*
X123625042Y-71349208D01*
X123463760Y-71374753D01*
X123261585Y-71440444D01*
X123072179Y-71536951D01*
X122900213Y-71661890D01*
X122749890Y-71812213D01*
X122624949Y-71984182D01*
X122620484Y-71992946D01*
X122572509Y-72043742D01*
X122504688Y-72060536D01*
X122438553Y-72037998D01*
X122399516Y-71992946D01*
X122395050Y-71984182D01*
X122270109Y-71812213D01*
X122119786Y-71661890D01*
X121947820Y-71536951D01*
X121758414Y-71440444D01*
X121758413Y-71440443D01*
X121758412Y-71440443D01*
X121556243Y-71374754D01*
X121556241Y-71374753D01*
X121556240Y-71374753D01*
X121394957Y-71349208D01*
X121346287Y-71341500D01*
X121133713Y-71341500D01*
X121085042Y-71349208D01*
X120923760Y-71374753D01*
X120721585Y-71440444D01*
X120532179Y-71536951D01*
X120360213Y-71661890D01*
X120209890Y-71812213D01*
X120084949Y-71984182D01*
X120080484Y-71992946D01*
X120032509Y-72043742D01*
X119964688Y-72060536D01*
X119898553Y-72037998D01*
X119859516Y-71992946D01*
X119855050Y-71984182D01*
X119730109Y-71812213D01*
X119579786Y-71661890D01*
X119407820Y-71536951D01*
X119218414Y-71440444D01*
X119218413Y-71440443D01*
X119218412Y-71440443D01*
X119016243Y-71374754D01*
X119016241Y-71374753D01*
X119016240Y-71374753D01*
X118854957Y-71349208D01*
X118806287Y-71341500D01*
X118593713Y-71341500D01*
X118545042Y-71349208D01*
X118383760Y-71374753D01*
X118181585Y-71440444D01*
X117992179Y-71536951D01*
X117820213Y-71661890D01*
X117669890Y-71812213D01*
X117544949Y-71984182D01*
X117540484Y-71992946D01*
X117492509Y-72043742D01*
X117424688Y-72060536D01*
X117358553Y-72037998D01*
X117319516Y-71992946D01*
X117315050Y-71984182D01*
X117190109Y-71812213D01*
X117039786Y-71661890D01*
X116867820Y-71536951D01*
X116678414Y-71440444D01*
X116678413Y-71440443D01*
X116678412Y-71440443D01*
X116476243Y-71374754D01*
X116476241Y-71374753D01*
X116476240Y-71374753D01*
X116314957Y-71349208D01*
X116266287Y-71341500D01*
X116053713Y-71341500D01*
X116005042Y-71349208D01*
X115843760Y-71374753D01*
X115641585Y-71440444D01*
X115452179Y-71536951D01*
X115280213Y-71661890D01*
X115129890Y-71812213D01*
X115004949Y-71984182D01*
X115000484Y-71992946D01*
X114952509Y-72043742D01*
X114884688Y-72060536D01*
X114818553Y-72037998D01*
X114779516Y-71992946D01*
X114775050Y-71984182D01*
X114650109Y-71812213D01*
X114499786Y-71661890D01*
X114327820Y-71536951D01*
X114138414Y-71440444D01*
X114138413Y-71440443D01*
X114138412Y-71440443D01*
X113936243Y-71374754D01*
X113936241Y-71374753D01*
X113936240Y-71374753D01*
X113774957Y-71349208D01*
X113726287Y-71341500D01*
X113513713Y-71341500D01*
X113465042Y-71349208D01*
X113303760Y-71374753D01*
X113101585Y-71440444D01*
X112912179Y-71536951D01*
X112740213Y-71661890D01*
X112589890Y-71812213D01*
X112464949Y-71984182D01*
X112460484Y-71992946D01*
X112412509Y-72043742D01*
X112344688Y-72060536D01*
X112278553Y-72037998D01*
X112239516Y-71992946D01*
X112235050Y-71984182D01*
X112110109Y-71812213D01*
X111959786Y-71661890D01*
X111787820Y-71536951D01*
X111598414Y-71440444D01*
X111598413Y-71440443D01*
X111598412Y-71440443D01*
X111396243Y-71374754D01*
X111396241Y-71374753D01*
X111396240Y-71374753D01*
X111234957Y-71349208D01*
X111186287Y-71341500D01*
X110973713Y-71341500D01*
X110925042Y-71349208D01*
X110763760Y-71374753D01*
X110561585Y-71440444D01*
X110372179Y-71536951D01*
X110200213Y-71661890D01*
X110049890Y-71812213D01*
X109924949Y-71984182D01*
X109920484Y-71992946D01*
X109872509Y-72043742D01*
X109804688Y-72060536D01*
X109738553Y-72037998D01*
X109699516Y-71992946D01*
X109695050Y-71984182D01*
X109570109Y-71812213D01*
X109419786Y-71661890D01*
X109247820Y-71536951D01*
X109058414Y-71440444D01*
X109058413Y-71440443D01*
X109058412Y-71440443D01*
X108856243Y-71374754D01*
X108856241Y-71374753D01*
X108856240Y-71374753D01*
X108694957Y-71349208D01*
X108646287Y-71341500D01*
X108433713Y-71341500D01*
X108385042Y-71349208D01*
X108223760Y-71374753D01*
X108021585Y-71440444D01*
X107832179Y-71536951D01*
X107660213Y-71661890D01*
X107509890Y-71812213D01*
X107384949Y-71984182D01*
X107380484Y-71992946D01*
X107332509Y-72043742D01*
X107264688Y-72060536D01*
X107198553Y-72037998D01*
X107159516Y-71992946D01*
X107155050Y-71984182D01*
X107030109Y-71812213D01*
X106879786Y-71661890D01*
X106707820Y-71536951D01*
X106518414Y-71440444D01*
X106518413Y-71440443D01*
X106518412Y-71440443D01*
X106316243Y-71374754D01*
X106316241Y-71374753D01*
X106316240Y-71374753D01*
X106154957Y-71349208D01*
X106106287Y-71341500D01*
X105893713Y-71341500D01*
X105845042Y-71349208D01*
X105683760Y-71374753D01*
X105481585Y-71440444D01*
X105292179Y-71536951D01*
X105120213Y-71661890D01*
X104969890Y-71812213D01*
X104844949Y-71984182D01*
X104840484Y-71992946D01*
X104792509Y-72043742D01*
X104724688Y-72060536D01*
X104658553Y-72037998D01*
X104619516Y-71992946D01*
X104615050Y-71984182D01*
X104490109Y-71812213D01*
X104339786Y-71661890D01*
X104167820Y-71536951D01*
X103978414Y-71440444D01*
X103978413Y-71440443D01*
X103978412Y-71440443D01*
X103776243Y-71374754D01*
X103776241Y-71374753D01*
X103776240Y-71374753D01*
X103614957Y-71349208D01*
X103566287Y-71341500D01*
X103353713Y-71341500D01*
X103305042Y-71349208D01*
X103143760Y-71374753D01*
X102941585Y-71440444D01*
X102752179Y-71536951D01*
X102580213Y-71661890D01*
X102429890Y-71812213D01*
X102304949Y-71984182D01*
X102300484Y-71992946D01*
X102252509Y-72043742D01*
X102184688Y-72060536D01*
X102118553Y-72037998D01*
X102079516Y-71992946D01*
X102075050Y-71984182D01*
X101950109Y-71812213D01*
X101799786Y-71661890D01*
X101627820Y-71536951D01*
X101438414Y-71440444D01*
X101438413Y-71440443D01*
X101438412Y-71440443D01*
X101236243Y-71374754D01*
X101236241Y-71374753D01*
X101236240Y-71374753D01*
X101074957Y-71349208D01*
X101026287Y-71341500D01*
X100813713Y-71341500D01*
X100765042Y-71349208D01*
X100603760Y-71374753D01*
X100401585Y-71440444D01*
X100212179Y-71536951D01*
X100040213Y-71661890D01*
X99889890Y-71812213D01*
X99764949Y-71984182D01*
X99760484Y-71992946D01*
X99712509Y-72043742D01*
X99644688Y-72060536D01*
X99578553Y-72037998D01*
X99539516Y-71992946D01*
X99535050Y-71984182D01*
X99410109Y-71812213D01*
X99259786Y-71661890D01*
X99087820Y-71536951D01*
X98898414Y-71440444D01*
X98898413Y-71440443D01*
X98898412Y-71440443D01*
X98696243Y-71374754D01*
X98696241Y-71374753D01*
X98696240Y-71374753D01*
X98534957Y-71349208D01*
X98486287Y-71341500D01*
X98273713Y-71341500D01*
X98225042Y-71349208D01*
X98063760Y-71374753D01*
X97861585Y-71440444D01*
X97672179Y-71536951D01*
X97500213Y-71661890D01*
X97349890Y-71812213D01*
X97224949Y-71984182D01*
X97220484Y-71992946D01*
X97172509Y-72043742D01*
X97104688Y-72060536D01*
X97038553Y-72037998D01*
X96999516Y-71992946D01*
X96995050Y-71984182D01*
X96870109Y-71812213D01*
X96719786Y-71661890D01*
X96547820Y-71536951D01*
X96358414Y-71440444D01*
X96358413Y-71440443D01*
X96358412Y-71440443D01*
X96156243Y-71374754D01*
X96156241Y-71374753D01*
X96156240Y-71374753D01*
X95994957Y-71349208D01*
X95946287Y-71341500D01*
X95733713Y-71341500D01*
X95685042Y-71349208D01*
X95523760Y-71374753D01*
X95321585Y-71440444D01*
X95132179Y-71536951D01*
X94960213Y-71661890D01*
X94809890Y-71812213D01*
X94684949Y-71984182D01*
X94680484Y-71992946D01*
X94632509Y-72043742D01*
X94564688Y-72060536D01*
X94498553Y-72037998D01*
X94459516Y-71992946D01*
X94455050Y-71984182D01*
X94330109Y-71812213D01*
X94179786Y-71661890D01*
X94007820Y-71536951D01*
X93818414Y-71440444D01*
X93818413Y-71440443D01*
X93818412Y-71440443D01*
X93616243Y-71374754D01*
X93616241Y-71374753D01*
X93616240Y-71374753D01*
X93454957Y-71349208D01*
X93406287Y-71341500D01*
X93193713Y-71341500D01*
X93145042Y-71349208D01*
X92983760Y-71374753D01*
X92781585Y-71440444D01*
X92592179Y-71536951D01*
X92420213Y-71661890D01*
X92269890Y-71812213D01*
X92144949Y-71984182D01*
X92140202Y-71993499D01*
X92092227Y-72044293D01*
X92024405Y-72061087D01*
X91958271Y-72038548D01*
X91919234Y-71993495D01*
X91914626Y-71984452D01*
X91875270Y-71930282D01*
X91875269Y-71930282D01*
X91160000Y-72645552D01*
X91160000Y-72639339D01*
X91132741Y-72537606D01*
X91080080Y-72446394D01*
X91005606Y-72371920D01*
X90914394Y-72319259D01*
X90812661Y-72292000D01*
X90806447Y-72292000D01*
X91521716Y-71576728D01*
X91467550Y-71537375D01*
X91278217Y-71440904D01*
X91076129Y-71375242D01*
X90866246Y-71342000D01*
X90653754Y-71342000D01*
X90443872Y-71375242D01*
X90443869Y-71375242D01*
X90241782Y-71440904D01*
X90052439Y-71537380D01*
X89998282Y-71576727D01*
X89998282Y-71576728D01*
X90713554Y-72292000D01*
X90707339Y-72292000D01*
X90605606Y-72319259D01*
X90514394Y-72371920D01*
X90439920Y-72446394D01*
X90387259Y-72537606D01*
X90360000Y-72639339D01*
X90360000Y-72645554D01*
X89644728Y-71930282D01*
X89644727Y-71930282D01*
X89605380Y-71984440D01*
X89605376Y-71984446D01*
X89600760Y-71993505D01*
X89552781Y-72044297D01*
X89484959Y-72061087D01*
X89418826Y-72038543D01*
X89379794Y-71993493D01*
X89375051Y-71984184D01*
X89375049Y-71984181D01*
X89375048Y-71984179D01*
X89250109Y-71812213D01*
X89099786Y-71661890D01*
X88927820Y-71536951D01*
X88738414Y-71440444D01*
X88738413Y-71440443D01*
X88738412Y-71440443D01*
X88536243Y-71374754D01*
X88536241Y-71374753D01*
X88536240Y-71374753D01*
X88374957Y-71349208D01*
X88326287Y-71341500D01*
X88113713Y-71341500D01*
X88065042Y-71349208D01*
X87903760Y-71374753D01*
X87701585Y-71440444D01*
X87512179Y-71536951D01*
X87340213Y-71661890D01*
X87189890Y-71812213D01*
X87064951Y-71984179D01*
X86968444Y-72173585D01*
X86902753Y-72375760D01*
X86877119Y-72537606D01*
X86869500Y-72585713D01*
X86869500Y-72798287D01*
X86880665Y-72868777D01*
X86902754Y-73008244D01*
X86902754Y-73008247D01*
X86916491Y-73050523D01*
X86918486Y-73120364D01*
X86886241Y-73176522D01*
X86171286Y-73891478D01*
X86059481Y-74003282D01*
X86059479Y-74003285D01*
X86009361Y-74090094D01*
X86009359Y-74090096D01*
X85980425Y-74140209D01*
X85980424Y-74140210D01*
X85966451Y-74192358D01*
X85939500Y-74292942D01*
X85939499Y-74292944D01*
X85939499Y-74461046D01*
X85939500Y-74461059D01*
X85939500Y-94514281D01*
X85919815Y-94581320D01*
X85871795Y-94624765D01*
X85832185Y-94644947D01*
X85832184Y-94644948D01*
X85660213Y-94769890D01*
X85509890Y-94920213D01*
X85384949Y-95092182D01*
X85380202Y-95101499D01*
X85332227Y-95152293D01*
X85264405Y-95169087D01*
X85198271Y-95146548D01*
X85159234Y-95101495D01*
X85154626Y-95092452D01*
X85115270Y-95038282D01*
X85115269Y-95038282D01*
X84400000Y-95753552D01*
X84400000Y-95747339D01*
X84372741Y-95645606D01*
X84320080Y-95554394D01*
X84245606Y-95479920D01*
X84154394Y-95427259D01*
X84052661Y-95400000D01*
X84046447Y-95400000D01*
X84761716Y-94684728D01*
X84707550Y-94645375D01*
X84518217Y-94548904D01*
X84316129Y-94483242D01*
X84106246Y-94450000D01*
X83893754Y-94450000D01*
X83683872Y-94483242D01*
X83683869Y-94483242D01*
X83481782Y-94548904D01*
X83292439Y-94645380D01*
X83238282Y-94684727D01*
X83238282Y-94684728D01*
X83953554Y-95400000D01*
X83947339Y-95400000D01*
X83845606Y-95427259D01*
X83754394Y-95479920D01*
X83679920Y-95554394D01*
X83627259Y-95645606D01*
X83600000Y-95747339D01*
X83600000Y-95753554D01*
X82884728Y-95038282D01*
X82884727Y-95038282D01*
X82845380Y-95092439D01*
X82748904Y-95281782D01*
X82683242Y-95483869D01*
X82683242Y-95483872D01*
X82650000Y-95693753D01*
X82650000Y-95906246D01*
X82683242Y-96116127D01*
X82683242Y-96116130D01*
X82748904Y-96318217D01*
X82845375Y-96507550D01*
X82884728Y-96561716D01*
X83600000Y-95846445D01*
X83600000Y-95852661D01*
X83627259Y-95954394D01*
X83679920Y-96045606D01*
X83754394Y-96120080D01*
X83845606Y-96172741D01*
X83947339Y-96200000D01*
X83953554Y-96200000D01*
X83238282Y-96915269D01*
X83238282Y-96915270D01*
X83292449Y-96954624D01*
X83481782Y-97051095D01*
X83683870Y-97116757D01*
X83893754Y-97150000D01*
X84106246Y-97150000D01*
X84316127Y-97116757D01*
X84316130Y-97116757D01*
X84518217Y-97051095D01*
X84707554Y-96954622D01*
X84761716Y-96915270D01*
X84761717Y-96915270D01*
X84046446Y-96200000D01*
X84052661Y-96200000D01*
X84154394Y-96172741D01*
X84245606Y-96120080D01*
X84320080Y-96045606D01*
X84372741Y-95954394D01*
X84400000Y-95852661D01*
X84400000Y-95846446D01*
X85115270Y-96561717D01*
X85115270Y-96561716D01*
X85154622Y-96507555D01*
X85159232Y-96498507D01*
X85207205Y-96447709D01*
X85275025Y-96430912D01*
X85341161Y-96453447D01*
X85380204Y-96498504D01*
X85384949Y-96507817D01*
X85509890Y-96679786D01*
X85660213Y-96830109D01*
X85832179Y-96955048D01*
X85832181Y-96955049D01*
X85832184Y-96955051D01*
X86021588Y-97051557D01*
X86223757Y-97117246D01*
X86433713Y-97150500D01*
X86433714Y-97150500D01*
X86646286Y-97150500D01*
X86646287Y-97150500D01*
X86856243Y-97117246D01*
X87058412Y-97051557D01*
X87247816Y-96955051D01*
X87302572Y-96915269D01*
X87419786Y-96830109D01*
X87419788Y-96830106D01*
X87419792Y-96830104D01*
X87570104Y-96679792D01*
X87570106Y-96679788D01*
X87570109Y-96679786D01*
X87695048Y-96507820D01*
X87695050Y-96507817D01*
X87695051Y-96507816D01*
X87699514Y-96499054D01*
X87747488Y-96448259D01*
X87815308Y-96431463D01*
X87881444Y-96453999D01*
X87920486Y-96499056D01*
X87924951Y-96507820D01*
X88049890Y-96679786D01*
X88200213Y-96830109D01*
X88372179Y-96955048D01*
X88372181Y-96955049D01*
X88372184Y-96955051D01*
X88561588Y-97051557D01*
X88763757Y-97117246D01*
X88973713Y-97150500D01*
X88973714Y-97150500D01*
X89186286Y-97150500D01*
X89186287Y-97150500D01*
X89396243Y-97117246D01*
X89598412Y-97051557D01*
X89787816Y-96955051D01*
X89842572Y-96915269D01*
X89959786Y-96830109D01*
X89959788Y-96830106D01*
X89959792Y-96830104D01*
X90110104Y-96679792D01*
X90110106Y-96679788D01*
X90110109Y-96679786D01*
X90235048Y-96507820D01*
X90235050Y-96507817D01*
X90235051Y-96507816D01*
X90239514Y-96499054D01*
X90287488Y-96448259D01*
X90355308Y-96431463D01*
X90421444Y-96453999D01*
X90460486Y-96499056D01*
X90464951Y-96507820D01*
X90589890Y-96679786D01*
X90740213Y-96830109D01*
X90912184Y-96955051D01*
X90912184Y-96955052D01*
X90951793Y-96975233D01*
X91002590Y-97023206D01*
X91019500Y-97085718D01*
X91019500Y-100779903D01*
X90999815Y-100846942D01*
X90983181Y-100867584D01*
X89387584Y-102463181D01*
X89326261Y-102496666D01*
X89299903Y-102499500D01*
X82100097Y-102499500D01*
X82033058Y-102479815D01*
X82012416Y-102463181D01*
X80936819Y-101387584D01*
X80903334Y-101326261D01*
X80900500Y-101299903D01*
X80900500Y-76340096D01*
X80920185Y-76273057D01*
X80936814Y-76252420D01*
X108055478Y-49133755D01*
X108116799Y-49100272D01*
X108181473Y-49103506D01*
X108223757Y-49117246D01*
X108433713Y-49150500D01*
X108433714Y-49150500D01*
X108646286Y-49150500D01*
X108646287Y-49150500D01*
X108856243Y-49117246D01*
X109058412Y-49051557D01*
X109247816Y-48955051D01*
X109334138Y-48892335D01*
X109419786Y-48830109D01*
X109419788Y-48830106D01*
X109419792Y-48830104D01*
X109570104Y-48679792D01*
X109570106Y-48679788D01*
X109570109Y-48679786D01*
X109695048Y-48507820D01*
X109695047Y-48507820D01*
X109695051Y-48507816D01*
X109699514Y-48499054D01*
X109747488Y-48448259D01*
X109815308Y-48431463D01*
X109881444Y-48453999D01*
X109920486Y-48499056D01*
X109924951Y-48507820D01*
X110049890Y-48679786D01*
X110200213Y-48830109D01*
X110372179Y-48955048D01*
X110372181Y-48955049D01*
X110372184Y-48955051D01*
X110561588Y-49051557D01*
X110763757Y-49117246D01*
X110973713Y-49150500D01*
X110973714Y-49150500D01*
X111186286Y-49150500D01*
X111186287Y-49150500D01*
X111396243Y-49117246D01*
X111598412Y-49051557D01*
X111787816Y-48955051D01*
X111874138Y-48892335D01*
X111959786Y-48830109D01*
X111959788Y-48830106D01*
X111959792Y-48830104D01*
X112110104Y-48679792D01*
X112110106Y-48679788D01*
X112110109Y-48679786D01*
X112235048Y-48507820D01*
X112235047Y-48507820D01*
X112235051Y-48507816D01*
X112239514Y-48499054D01*
X112287488Y-48448259D01*
X112355308Y-48431463D01*
X112421444Y-48453999D01*
X112460486Y-48499056D01*
X112464951Y-48507820D01*
X112589890Y-48679786D01*
X112740213Y-48830109D01*
X112912179Y-48955048D01*
X112912181Y-48955049D01*
X112912184Y-48955051D01*
X113101588Y-49051557D01*
X113303757Y-49117246D01*
X113513713Y-49150500D01*
X113513714Y-49150500D01*
X113726286Y-49150500D01*
X113726287Y-49150500D01*
X113936243Y-49117246D01*
X114138412Y-49051557D01*
X114327816Y-48955051D01*
X114414138Y-48892335D01*
X114499786Y-48830109D01*
X114499788Y-48830106D01*
X114499792Y-48830104D01*
X114650104Y-48679792D01*
X114650106Y-48679788D01*
X114650109Y-48679786D01*
X114775048Y-48507820D01*
X114775047Y-48507820D01*
X114775051Y-48507816D01*
X114779514Y-48499054D01*
X114827488Y-48448259D01*
X114895308Y-48431463D01*
X114961444Y-48453999D01*
X115000486Y-48499056D01*
X115004951Y-48507820D01*
X115129890Y-48679786D01*
X115280213Y-48830109D01*
X115452179Y-48955048D01*
X115452181Y-48955049D01*
X115452184Y-48955051D01*
X115641588Y-49051557D01*
X115843757Y-49117246D01*
X116053713Y-49150500D01*
X116053714Y-49150500D01*
X116266286Y-49150500D01*
X116266287Y-49150500D01*
X116476243Y-49117246D01*
X116678412Y-49051557D01*
X116867816Y-48955051D01*
X116954138Y-48892335D01*
X117039786Y-48830109D01*
X117039788Y-48830106D01*
X117039792Y-48830104D01*
X117190104Y-48679792D01*
X117190106Y-48679788D01*
X117190109Y-48679786D01*
X117315048Y-48507820D01*
X117315047Y-48507820D01*
X117315051Y-48507816D01*
X117319514Y-48499054D01*
X117367488Y-48448259D01*
X117435308Y-48431463D01*
X117501444Y-48453999D01*
X117540486Y-48499056D01*
X117544951Y-48507820D01*
X117669890Y-48679786D01*
X117820213Y-48830109D01*
X117992179Y-48955048D01*
X117992181Y-48955049D01*
X117992184Y-48955051D01*
X118181588Y-49051557D01*
X118383757Y-49117246D01*
X118593713Y-49150500D01*
X118593714Y-49150500D01*
X118806286Y-49150500D01*
X118806287Y-49150500D01*
X119016243Y-49117246D01*
X119218412Y-49051557D01*
X119407816Y-48955051D01*
X119494138Y-48892335D01*
X119579786Y-48830109D01*
X119579788Y-48830106D01*
X119579792Y-48830104D01*
X119730104Y-48679792D01*
X119730106Y-48679788D01*
X119730109Y-48679786D01*
X119855048Y-48507820D01*
X119855047Y-48507820D01*
X119855051Y-48507816D01*
X119859514Y-48499054D01*
X119907488Y-48448259D01*
X119975308Y-48431463D01*
X120041444Y-48453999D01*
X120080486Y-48499056D01*
X120084951Y-48507820D01*
X120209890Y-48679786D01*
X120360213Y-48830109D01*
X120532179Y-48955048D01*
X120532181Y-48955049D01*
X120532184Y-48955051D01*
X120721588Y-49051557D01*
X120923757Y-49117246D01*
X121133713Y-49150500D01*
X121133714Y-49150500D01*
X121346286Y-49150500D01*
X121346287Y-49150500D01*
X121556243Y-49117246D01*
X121758412Y-49051557D01*
X121947816Y-48955051D01*
X122119792Y-48830104D01*
X122204924Y-48744971D01*
X122266243Y-48711489D01*
X122335935Y-48716473D01*
X122391869Y-48758344D01*
X122408784Y-48789322D01*
X122447202Y-48892328D01*
X122447206Y-48892335D01*
X122533452Y-49007544D01*
X122533455Y-49007547D01*
X122648664Y-49093793D01*
X122648671Y-49093797D01*
X122783517Y-49144091D01*
X122783516Y-49144091D01*
X122790444Y-49144835D01*
X122843127Y-49150500D01*
X124208872Y-49150499D01*
X124268483Y-49144091D01*
X124403331Y-49093796D01*
X124518546Y-49007546D01*
X124604796Y-48892331D01*
X124655091Y-48757483D01*
X124661500Y-48697873D01*
X124661499Y-46902128D01*
X124655091Y-46842517D01*
X124643215Y-46810677D01*
X124604797Y-46707671D01*
X124604793Y-46707664D01*
X124518547Y-46592455D01*
X124518544Y-46592452D01*
X124403335Y-46506206D01*
X124403328Y-46506202D01*
X124268482Y-46455908D01*
X124268483Y-46455908D01*
X124208883Y-46449501D01*
X124208881Y-46449500D01*
X124208873Y-46449500D01*
X124208864Y-46449500D01*
X122843129Y-46449500D01*
X122843123Y-46449501D01*
X122783516Y-46455908D01*
X122648671Y-46506202D01*
X122648664Y-46506206D01*
X122533455Y-46592452D01*
X122533452Y-46592455D01*
X122447206Y-46707664D01*
X122447202Y-46707671D01*
X122408784Y-46810677D01*
X122366913Y-46866611D01*
X122301449Y-46891028D01*
X122233176Y-46876176D01*
X122204921Y-46855025D01*
X122119786Y-46769890D01*
X121947820Y-46644951D01*
X121758414Y-46548444D01*
X121758413Y-46548443D01*
X121758412Y-46548443D01*
X121556243Y-46482754D01*
X121556241Y-46482753D01*
X121556240Y-46482753D01*
X121394957Y-46457208D01*
X121346287Y-46449500D01*
X121133713Y-46449500D01*
X121085042Y-46457208D01*
X120923760Y-46482753D01*
X120721585Y-46548444D01*
X120532179Y-46644951D01*
X120360213Y-46769890D01*
X120209890Y-46920213D01*
X120084949Y-47092182D01*
X120080484Y-47100946D01*
X120032509Y-47151742D01*
X119964688Y-47168536D01*
X119898553Y-47145998D01*
X119859516Y-47100946D01*
X119855050Y-47092182D01*
X119730109Y-46920213D01*
X119579786Y-46769890D01*
X119407820Y-46644951D01*
X119218414Y-46548444D01*
X119218413Y-46548443D01*
X119218412Y-46548443D01*
X119016243Y-46482754D01*
X119016241Y-46482753D01*
X119016240Y-46482753D01*
X118854957Y-46457208D01*
X118806287Y-46449500D01*
X118593713Y-46449500D01*
X118545042Y-46457208D01*
X118383760Y-46482753D01*
X118181585Y-46548444D01*
X117992179Y-46644951D01*
X117820213Y-46769890D01*
X117669890Y-46920213D01*
X117544949Y-47092182D01*
X117540484Y-47100946D01*
X117492509Y-47151742D01*
X117424688Y-47168536D01*
X117358553Y-47145998D01*
X117319516Y-47100946D01*
X117315050Y-47092182D01*
X117190109Y-46920213D01*
X117039786Y-46769890D01*
X116867820Y-46644951D01*
X116678414Y-46548444D01*
X116678413Y-46548443D01*
X116678412Y-46548443D01*
X116476243Y-46482754D01*
X116476241Y-46482753D01*
X116476240Y-46482753D01*
X116314957Y-46457208D01*
X116266287Y-46449500D01*
X116053713Y-46449500D01*
X116005042Y-46457208D01*
X115843760Y-46482753D01*
X115641585Y-46548444D01*
X115452179Y-46644951D01*
X115280213Y-46769890D01*
X115129890Y-46920213D01*
X115004949Y-47092182D01*
X115000484Y-47100946D01*
X114952509Y-47151742D01*
X114884688Y-47168536D01*
X114818553Y-47145998D01*
X114779516Y-47100946D01*
X114775050Y-47092182D01*
X114650109Y-46920213D01*
X114499786Y-46769890D01*
X114327820Y-46644951D01*
X114138414Y-46548444D01*
X114138413Y-46548443D01*
X114138412Y-46548443D01*
X113936243Y-46482754D01*
X113936241Y-46482753D01*
X113936240Y-46482753D01*
X113774957Y-46457208D01*
X113726287Y-46449500D01*
X113513713Y-46449500D01*
X113465042Y-46457208D01*
X113303760Y-46482753D01*
X113101585Y-46548444D01*
X112912179Y-46644951D01*
X112740213Y-46769890D01*
X112589890Y-46920213D01*
X112464949Y-47092182D01*
X112460484Y-47100946D01*
X112412509Y-47151742D01*
X112344688Y-47168536D01*
X112278553Y-47145998D01*
X112239516Y-47100946D01*
X112235050Y-47092182D01*
X112110109Y-46920213D01*
X111959786Y-46769890D01*
X111787820Y-46644951D01*
X111598414Y-46548444D01*
X111598413Y-46548443D01*
X111598412Y-46548443D01*
X111396243Y-46482754D01*
X111396241Y-46482753D01*
X111396240Y-46482753D01*
X111234957Y-46457208D01*
X111186287Y-46449500D01*
X110973713Y-46449500D01*
X110925042Y-46457208D01*
X110763760Y-46482753D01*
X110561585Y-46548444D01*
X110372179Y-46644951D01*
X110200213Y-46769890D01*
X110049890Y-46920213D01*
X109924949Y-47092182D01*
X109920484Y-47100946D01*
X109872509Y-47151742D01*
X109804688Y-47168536D01*
X109738553Y-47145998D01*
X109699516Y-47100946D01*
X109695050Y-47092182D01*
X109570109Y-46920213D01*
X109419786Y-46769890D01*
X109247820Y-46644951D01*
X109058414Y-46548444D01*
X109058413Y-46548443D01*
X109058412Y-46548443D01*
X108856243Y-46482754D01*
X108856241Y-46482753D01*
X108856240Y-46482753D01*
X108694957Y-46457208D01*
X108646287Y-46449500D01*
X108433713Y-46449500D01*
X108385042Y-46457208D01*
X108223760Y-46482753D01*
X108021585Y-46548444D01*
X107832179Y-46644951D01*
X107660213Y-46769890D01*
X107509890Y-46920213D01*
X107384949Y-47092182D01*
X107380484Y-47100946D01*
X107332509Y-47151742D01*
X107264688Y-47168536D01*
X107198553Y-47145998D01*
X107159516Y-47100946D01*
X107155050Y-47092182D01*
X107030109Y-46920213D01*
X106879786Y-46769890D01*
X106707820Y-46644951D01*
X106518414Y-46548444D01*
X106518413Y-46548443D01*
X106518412Y-46548443D01*
X106316243Y-46482754D01*
X106316241Y-46482753D01*
X106316240Y-46482753D01*
X106154957Y-46457208D01*
X106106287Y-46449500D01*
X105893713Y-46449500D01*
X105845042Y-46457208D01*
X105683760Y-46482753D01*
X105481585Y-46548444D01*
X105292179Y-46644951D01*
X105120213Y-46769890D01*
X104969890Y-46920213D01*
X104844949Y-47092182D01*
X104840484Y-47100946D01*
X104792509Y-47151742D01*
X104724688Y-47168536D01*
X104658553Y-47145998D01*
X104619516Y-47100946D01*
X104615050Y-47092182D01*
X104490109Y-46920213D01*
X104339786Y-46769890D01*
X104167820Y-46644951D01*
X103978414Y-46548444D01*
X103978413Y-46548443D01*
X103978412Y-46548443D01*
X103776243Y-46482754D01*
X103776241Y-46482753D01*
X103776240Y-46482753D01*
X103614957Y-46457208D01*
X103566287Y-46449500D01*
X103353713Y-46449500D01*
X103305042Y-46457208D01*
X103143760Y-46482753D01*
X102941585Y-46548444D01*
X102752179Y-46644951D01*
X102580213Y-46769890D01*
X102429890Y-46920213D01*
X102304949Y-47092182D01*
X102300484Y-47100946D01*
X102252509Y-47151742D01*
X102184688Y-47168536D01*
X102118553Y-47145998D01*
X102079516Y-47100946D01*
X102075050Y-47092182D01*
X101950109Y-46920213D01*
X101799786Y-46769890D01*
X101627820Y-46644951D01*
X101438414Y-46548444D01*
X101438413Y-46548443D01*
X101438412Y-46548443D01*
X101236243Y-46482754D01*
X101236241Y-46482753D01*
X101236240Y-46482753D01*
X101074957Y-46457208D01*
X101026287Y-46449500D01*
X100813713Y-46449500D01*
X100765042Y-46457208D01*
X100603760Y-46482753D01*
X100401585Y-46548444D01*
X100212179Y-46644951D01*
X100040213Y-46769890D01*
X99889890Y-46920213D01*
X99764949Y-47092182D01*
X99760484Y-47100946D01*
X99712509Y-47151742D01*
X99644688Y-47168536D01*
X99578553Y-47145998D01*
X99539516Y-47100946D01*
X99535050Y-47092182D01*
X99410109Y-46920213D01*
X99259786Y-46769890D01*
X99087820Y-46644951D01*
X98898414Y-46548444D01*
X98898413Y-46548443D01*
X98898412Y-46548443D01*
X98696243Y-46482754D01*
X98696241Y-46482753D01*
X98696240Y-46482753D01*
X98534957Y-46457208D01*
X98486287Y-46449500D01*
X98273713Y-46449500D01*
X98225042Y-46457208D01*
X98063760Y-46482753D01*
X97861585Y-46548444D01*
X97672179Y-46644951D01*
X97500213Y-46769890D01*
X97349890Y-46920213D01*
X97224949Y-47092182D01*
X97220484Y-47100946D01*
X97172509Y-47151742D01*
X97104688Y-47168536D01*
X97038553Y-47145998D01*
X96999516Y-47100946D01*
X96995050Y-47092182D01*
X96870109Y-46920213D01*
X96719786Y-46769890D01*
X96547820Y-46644951D01*
X96358414Y-46548444D01*
X96358413Y-46548443D01*
X96358412Y-46548443D01*
X96156243Y-46482754D01*
X96156241Y-46482753D01*
X96156240Y-46482753D01*
X95994957Y-46457208D01*
X95946287Y-46449500D01*
X95733713Y-46449500D01*
X95685042Y-46457208D01*
X95523760Y-46482753D01*
X95321585Y-46548444D01*
X95132179Y-46644951D01*
X94960213Y-46769890D01*
X94809890Y-46920213D01*
X94684949Y-47092182D01*
X94680484Y-47100946D01*
X94632509Y-47151742D01*
X94564688Y-47168536D01*
X94498553Y-47145998D01*
X94459516Y-47100946D01*
X94455050Y-47092182D01*
X94330109Y-46920213D01*
X94179786Y-46769890D01*
X94007820Y-46644951D01*
X93818414Y-46548444D01*
X93818413Y-46548443D01*
X93818412Y-46548443D01*
X93616243Y-46482754D01*
X93616241Y-46482753D01*
X93616240Y-46482753D01*
X93454957Y-46457208D01*
X93406287Y-46449500D01*
X93193713Y-46449500D01*
X93145042Y-46457208D01*
X92983760Y-46482753D01*
X92781585Y-46548444D01*
X92592179Y-46644951D01*
X92420213Y-46769890D01*
X92269890Y-46920213D01*
X92144949Y-47092182D01*
X92140202Y-47101499D01*
X92092227Y-47152293D01*
X92024405Y-47169087D01*
X91958271Y-47146548D01*
X91919234Y-47101495D01*
X91914626Y-47092452D01*
X91875270Y-47038282D01*
X91875269Y-47038282D01*
X91160000Y-47753552D01*
X91160000Y-47747339D01*
X91132741Y-47645606D01*
X91080080Y-47554394D01*
X91005606Y-47479920D01*
X90914394Y-47427259D01*
X90812661Y-47400000D01*
X90806447Y-47400000D01*
X91521716Y-46684728D01*
X91467550Y-46645375D01*
X91278217Y-46548904D01*
X91076129Y-46483242D01*
X90866246Y-46450000D01*
X90653754Y-46450000D01*
X90443872Y-46483242D01*
X90443869Y-46483242D01*
X90241782Y-46548904D01*
X90052439Y-46645380D01*
X89998282Y-46684727D01*
X89998282Y-46684728D01*
X90713554Y-47400000D01*
X90707339Y-47400000D01*
X90605606Y-47427259D01*
X90514394Y-47479920D01*
X90439920Y-47554394D01*
X90387259Y-47645606D01*
X90360000Y-47747339D01*
X90360000Y-47753554D01*
X89644728Y-47038282D01*
X89644727Y-47038282D01*
X89605380Y-47092440D01*
X89605376Y-47092446D01*
X89600760Y-47101505D01*
X89552781Y-47152297D01*
X89484959Y-47169087D01*
X89418826Y-47146543D01*
X89379794Y-47101493D01*
X89375051Y-47092184D01*
X89375049Y-47092181D01*
X89375048Y-47092179D01*
X89250109Y-46920213D01*
X89099786Y-46769890D01*
X88927820Y-46644951D01*
X88738414Y-46548444D01*
X88738413Y-46548443D01*
X88738412Y-46548443D01*
X88536243Y-46482754D01*
X88536241Y-46482753D01*
X88536240Y-46482753D01*
X88374957Y-46457208D01*
X88326287Y-46449500D01*
X88113713Y-46449500D01*
X88065042Y-46457208D01*
X87903760Y-46482753D01*
X87701585Y-46548444D01*
X87512179Y-46644951D01*
X87340213Y-46769890D01*
X87189890Y-46920213D01*
X87064951Y-47092179D01*
X86968444Y-47281585D01*
X86902753Y-47483760D01*
X86891566Y-47554394D01*
X86869500Y-47693713D01*
X86869500Y-47906287D01*
X86902754Y-48116243D01*
X86929968Y-48200000D01*
X86968444Y-48318414D01*
X87064951Y-48507820D01*
X87189890Y-48679786D01*
X87340213Y-48830109D01*
X87512179Y-48955048D01*
X87512181Y-48955049D01*
X87512184Y-48955051D01*
X87701588Y-49051557D01*
X87903757Y-49117246D01*
X88113713Y-49150500D01*
X88113714Y-49150500D01*
X88326286Y-49150500D01*
X88326287Y-49150500D01*
X88536243Y-49117246D01*
X88738412Y-49051557D01*
X88927816Y-48955051D01*
X89014138Y-48892335D01*
X89099786Y-48830109D01*
X89099788Y-48830106D01*
X89099792Y-48830104D01*
X89250104Y-48679792D01*
X89250106Y-48679788D01*
X89250109Y-48679786D01*
X89335890Y-48561717D01*
X89375051Y-48507816D01*
X89379793Y-48498508D01*
X89427763Y-48447711D01*
X89495583Y-48430911D01*
X89561719Y-48453445D01*
X89600763Y-48498500D01*
X89605373Y-48507547D01*
X89644728Y-48561716D01*
X90360000Y-47846445D01*
X90360000Y-47852661D01*
X90387259Y-47954394D01*
X90439920Y-48045606D01*
X90514394Y-48120080D01*
X90605606Y-48172741D01*
X90707339Y-48200000D01*
X90713554Y-48200000D01*
X89998282Y-48915269D01*
X89998282Y-48915270D01*
X90052449Y-48954624D01*
X90241782Y-49051095D01*
X90443870Y-49116757D01*
X90653754Y-49150000D01*
X90866246Y-49150000D01*
X91076127Y-49116757D01*
X91076130Y-49116757D01*
X91278217Y-49051095D01*
X91467554Y-48954622D01*
X91521716Y-48915270D01*
X91521717Y-48915270D01*
X90806446Y-48200000D01*
X90812661Y-48200000D01*
X90914394Y-48172741D01*
X91005606Y-48120080D01*
X91080080Y-48045606D01*
X91132741Y-47954394D01*
X91160000Y-47852661D01*
X91160000Y-47846446D01*
X91875270Y-48561717D01*
X91875270Y-48561716D01*
X91914622Y-48507555D01*
X91919232Y-48498507D01*
X91967205Y-48447709D01*
X92035025Y-48430912D01*
X92101161Y-48453447D01*
X92140204Y-48498504D01*
X92144949Y-48507817D01*
X92269890Y-48679786D01*
X92420213Y-48830109D01*
X92592179Y-48955048D01*
X92592181Y-48955049D01*
X92592184Y-48955051D01*
X92781588Y-49051557D01*
X92983757Y-49117246D01*
X93193713Y-49150500D01*
X93193714Y-49150500D01*
X93406286Y-49150500D01*
X93406287Y-49150500D01*
X93616243Y-49117246D01*
X93818412Y-49051557D01*
X94007816Y-48955051D01*
X94094138Y-48892335D01*
X94179786Y-48830109D01*
X94179788Y-48830106D01*
X94179792Y-48830104D01*
X94330104Y-48679792D01*
X94330106Y-48679788D01*
X94330109Y-48679786D01*
X94455048Y-48507820D01*
X94455047Y-48507820D01*
X94455051Y-48507816D01*
X94459514Y-48499054D01*
X94507488Y-48448259D01*
X94575308Y-48431463D01*
X94641444Y-48453999D01*
X94680486Y-48499056D01*
X94684951Y-48507820D01*
X94809890Y-48679786D01*
X94960213Y-48830109D01*
X95132179Y-48955048D01*
X95132181Y-48955049D01*
X95132184Y-48955051D01*
X95321588Y-49051557D01*
X95523757Y-49117246D01*
X95733713Y-49150500D01*
X95733714Y-49150500D01*
X95946286Y-49150500D01*
X95946287Y-49150500D01*
X96156243Y-49117246D01*
X96358412Y-49051557D01*
X96547816Y-48955051D01*
X96634138Y-48892335D01*
X96719786Y-48830109D01*
X96719788Y-48830106D01*
X96719792Y-48830104D01*
X96870104Y-48679792D01*
X96870106Y-48679788D01*
X96870109Y-48679786D01*
X96995048Y-48507820D01*
X96995047Y-48507820D01*
X96995051Y-48507816D01*
X96999514Y-48499054D01*
X97047488Y-48448259D01*
X97115308Y-48431463D01*
X97181444Y-48453999D01*
X97220486Y-48499056D01*
X97224951Y-48507820D01*
X97349890Y-48679786D01*
X97500213Y-48830109D01*
X97672179Y-48955048D01*
X97672181Y-48955049D01*
X97672184Y-48955051D01*
X97861588Y-49051557D01*
X98063757Y-49117246D01*
X98273713Y-49150500D01*
X98273714Y-49150500D01*
X98486286Y-49150500D01*
X98486287Y-49150500D01*
X98696243Y-49117246D01*
X98898412Y-49051557D01*
X99087816Y-48955051D01*
X99174138Y-48892335D01*
X99259786Y-48830109D01*
X99259788Y-48830106D01*
X99259792Y-48830104D01*
X99410104Y-48679792D01*
X99410106Y-48679788D01*
X99410109Y-48679786D01*
X99535048Y-48507820D01*
X99535047Y-48507820D01*
X99535051Y-48507816D01*
X99539514Y-48499054D01*
X99587488Y-48448259D01*
X99655308Y-48431463D01*
X99721444Y-48453999D01*
X99760486Y-48499056D01*
X99764951Y-48507820D01*
X99889890Y-48679786D01*
X100040213Y-48830109D01*
X100212179Y-48955048D01*
X100212181Y-48955049D01*
X100212184Y-48955051D01*
X100401588Y-49051557D01*
X100603757Y-49117246D01*
X100813713Y-49150500D01*
X100813714Y-49150500D01*
X101026286Y-49150500D01*
X101026287Y-49150500D01*
X101236243Y-49117246D01*
X101438412Y-49051557D01*
X101627816Y-48955051D01*
X101714138Y-48892335D01*
X101799786Y-48830109D01*
X101799788Y-48830106D01*
X101799792Y-48830104D01*
X101950104Y-48679792D01*
X101950106Y-48679788D01*
X101950109Y-48679786D01*
X102075048Y-48507820D01*
X102075047Y-48507820D01*
X102075051Y-48507816D01*
X102079514Y-48499054D01*
X102127488Y-48448259D01*
X102195308Y-48431463D01*
X102261444Y-48453999D01*
X102300486Y-48499056D01*
X102304951Y-48507820D01*
X102429890Y-48679786D01*
X102580213Y-48830109D01*
X102752179Y-48955048D01*
X102752181Y-48955049D01*
X102752184Y-48955051D01*
X102941588Y-49051557D01*
X103143757Y-49117246D01*
X103353713Y-49150500D01*
X103353714Y-49150500D01*
X103566286Y-49150500D01*
X103566287Y-49150500D01*
X103776243Y-49117246D01*
X103978412Y-49051557D01*
X104167816Y-48955051D01*
X104254138Y-48892335D01*
X104339786Y-48830109D01*
X104339788Y-48830106D01*
X104339792Y-48830104D01*
X104490104Y-48679792D01*
X104490106Y-48679788D01*
X104490109Y-48679786D01*
X104615048Y-48507820D01*
X104615047Y-48507820D01*
X104615051Y-48507816D01*
X104619514Y-48499054D01*
X104667488Y-48448259D01*
X104735308Y-48431463D01*
X104801444Y-48453999D01*
X104840486Y-48499056D01*
X104844951Y-48507820D01*
X104969890Y-48679786D01*
X105120213Y-48830109D01*
X105292179Y-48955048D01*
X105292181Y-48955049D01*
X105292184Y-48955051D01*
X105481588Y-49051557D01*
X105683757Y-49117246D01*
X105893713Y-49150500D01*
X105893714Y-49150500D01*
X106040902Y-49150500D01*
X106107941Y-49170185D01*
X106153696Y-49222989D01*
X106163640Y-49292147D01*
X106134615Y-49355703D01*
X106128583Y-49362181D01*
X79819481Y-75671282D01*
X79819480Y-75671284D01*
X79779563Y-75740423D01*
X79740423Y-75808215D01*
X79699499Y-75960943D01*
X79699499Y-75960945D01*
X79699499Y-76129046D01*
X79699500Y-76129059D01*
X79699500Y-101513330D01*
X79699499Y-101513348D01*
X79699499Y-101679054D01*
X79699498Y-101679054D01*
X79740423Y-101831785D01*
X79769358Y-101881900D01*
X79769359Y-101881904D01*
X79769360Y-101881904D01*
X79819479Y-101968714D01*
X79819481Y-101968717D01*
X79938349Y-102087585D01*
X79938355Y-102087590D01*
X81315139Y-103464374D01*
X81315149Y-103464385D01*
X81319479Y-103468715D01*
X81319480Y-103468716D01*
X81431284Y-103580520D01*
X81431286Y-103580521D01*
X81431290Y-103580524D01*
X81568209Y-103659573D01*
X81568216Y-103659577D01*
X81680019Y-103689534D01*
X81720942Y-103700500D01*
X81720943Y-103700500D01*
X89513331Y-103700500D01*
X89513347Y-103700501D01*
X89520943Y-103700501D01*
X89679054Y-103700501D01*
X89679057Y-103700501D01*
X89831785Y-103659577D01*
X89881904Y-103630639D01*
X89968716Y-103580520D01*
X90080520Y-103468716D01*
X90080520Y-103468714D01*
X90090728Y-103458507D01*
X90090730Y-103458504D01*
X91978506Y-101570728D01*
X91978511Y-101570724D01*
X91988714Y-101560520D01*
X91988716Y-101560520D01*
X92100520Y-101448716D01*
X92179577Y-101311784D01*
X92220500Y-101159057D01*
X92220500Y-97085718D01*
X92240185Y-97018679D01*
X92288207Y-96975233D01*
X92327815Y-96955052D01*
X92327815Y-96955051D01*
X92327816Y-96955051D01*
X92419193Y-96888661D01*
X92499786Y-96830109D01*
X92499788Y-96830106D01*
X92499792Y-96830104D01*
X92650104Y-96679792D01*
X92650106Y-96679788D01*
X92650109Y-96679786D01*
X92775048Y-96507820D01*
X92775050Y-96507817D01*
X92775051Y-96507816D01*
X92779514Y-96499054D01*
X92827488Y-96448259D01*
X92895308Y-96431463D01*
X92961444Y-96453999D01*
X93000486Y-96499056D01*
X93004951Y-96507820D01*
X93129890Y-96679786D01*
X93280213Y-96830109D01*
X93452179Y-96955048D01*
X93452181Y-96955049D01*
X93452184Y-96955051D01*
X93641588Y-97051557D01*
X93843757Y-97117246D01*
X94053713Y-97150500D01*
X94053714Y-97150500D01*
X94266286Y-97150500D01*
X94266287Y-97150500D01*
X94476243Y-97117246D01*
X94678412Y-97051557D01*
X94867816Y-96955051D01*
X94922572Y-96915269D01*
X95039786Y-96830109D01*
X95039788Y-96830106D01*
X95039792Y-96830104D01*
X95190104Y-96679792D01*
X95190106Y-96679788D01*
X95190109Y-96679786D01*
X95315048Y-96507820D01*
X95315050Y-96507817D01*
X95315051Y-96507816D01*
X95411557Y-96318412D01*
X95477246Y-96116243D01*
X95510500Y-95906287D01*
X95510500Y-95693713D01*
X95477246Y-95483757D01*
X95411557Y-95281588D01*
X95315051Y-95092184D01*
X95315049Y-95092181D01*
X95315048Y-95092179D01*
X95190109Y-94920213D01*
X95039786Y-94769890D01*
X94867820Y-94644951D01*
X94678414Y-94548444D01*
X94678413Y-94548443D01*
X94678412Y-94548443D01*
X94476243Y-94482754D01*
X94476241Y-94482753D01*
X94476240Y-94482753D01*
X94314957Y-94457208D01*
X94266287Y-94449500D01*
X94053713Y-94449500D01*
X94005042Y-94457208D01*
X93843760Y-94482753D01*
X93641585Y-94548444D01*
X93452179Y-94644951D01*
X93280213Y-94769890D01*
X93129890Y-94920213D01*
X93004949Y-95092182D01*
X93000484Y-95100946D01*
X92952509Y-95151742D01*
X92884688Y-95168536D01*
X92818553Y-95145998D01*
X92779516Y-95100946D01*
X92775050Y-95092182D01*
X92650109Y-94920213D01*
X92499786Y-94769890D01*
X92327820Y-94644951D01*
X92138414Y-94548444D01*
X92138413Y-94548443D01*
X92138412Y-94548443D01*
X91936243Y-94482754D01*
X91936241Y-94482753D01*
X91936240Y-94482753D01*
X91774957Y-94457208D01*
X91726287Y-94449500D01*
X91513713Y-94449500D01*
X91465042Y-94457208D01*
X91303760Y-94482753D01*
X91101585Y-94548444D01*
X90912179Y-94644951D01*
X90740213Y-94769890D01*
X90589890Y-94920213D01*
X90464949Y-95092182D01*
X90460484Y-95100946D01*
X90412509Y-95151742D01*
X90344688Y-95168536D01*
X90278553Y-95145998D01*
X90239516Y-95100946D01*
X90235050Y-95092182D01*
X90110109Y-94920213D01*
X89959786Y-94769890D01*
X89787817Y-94644949D01*
X89768202Y-94634954D01*
X89717407Y-94586978D01*
X89700500Y-94524471D01*
X89700500Y-88639601D01*
X89720185Y-88572562D01*
X89768206Y-88529116D01*
X89781610Y-88522287D01*
X89947219Y-88401966D01*
X90091966Y-88257219D01*
X90091968Y-88257215D01*
X90091971Y-88257213D01*
X90144732Y-88184590D01*
X90212287Y-88091610D01*
X90305220Y-87909219D01*
X90368477Y-87714534D01*
X90400500Y-87512352D01*
X90400500Y-87307648D01*
X90368477Y-87105466D01*
X90305220Y-86910781D01*
X90305218Y-86910778D01*
X90305218Y-86910776D01*
X90271503Y-86844607D01*
X90212287Y-86728390D01*
X90204556Y-86717749D01*
X90091971Y-86562786D01*
X89947213Y-86418028D01*
X89781613Y-86297715D01*
X89781612Y-86297714D01*
X89781610Y-86297713D01*
X89712163Y-86262328D01*
X89599223Y-86204781D01*
X89404534Y-86141522D01*
X89229995Y-86113878D01*
X89202352Y-86109500D01*
X88997648Y-86109500D01*
X88973329Y-86113351D01*
X88795465Y-86141522D01*
X88600776Y-86204781D01*
X88418386Y-86297715D01*
X88252786Y-86418028D01*
X88108028Y-86562786D01*
X87987715Y-86728386D01*
X87894781Y-86910776D01*
X87831522Y-87105465D01*
X87799500Y-87307648D01*
X87799500Y-87512351D01*
X87831522Y-87714534D01*
X87894781Y-87909223D01*
X87987715Y-88091613D01*
X88108028Y-88257213D01*
X88108034Y-88257219D01*
X88252781Y-88401966D01*
X88418390Y-88522287D01*
X88431793Y-88529116D01*
X88482589Y-88577088D01*
X88499500Y-88639601D01*
X88499500Y-94504090D01*
X88479815Y-94571129D01*
X88431796Y-94614574D01*
X88372182Y-94644949D01*
X88200213Y-94769890D01*
X88049890Y-94920213D01*
X87924949Y-95092182D01*
X87920484Y-95100946D01*
X87872509Y-95151742D01*
X87804688Y-95168536D01*
X87738553Y-95145998D01*
X87699516Y-95100946D01*
X87695050Y-95092182D01*
X87570109Y-94920213D01*
X87419786Y-94769890D01*
X87247815Y-94644948D01*
X87247814Y-94644947D01*
X87208205Y-94624765D01*
X87157409Y-94576791D01*
X87140500Y-94514281D01*
X87140500Y-85063713D01*
X134769500Y-85063713D01*
X134769500Y-85276287D01*
X134802754Y-85486243D01*
X134829968Y-85570000D01*
X134868444Y-85688414D01*
X134964951Y-85877820D01*
X135089890Y-86049786D01*
X135240213Y-86200109D01*
X135412179Y-86325048D01*
X135412181Y-86325049D01*
X135412184Y-86325051D01*
X135601588Y-86421557D01*
X135803757Y-86487246D01*
X136013713Y-86520500D01*
X136013714Y-86520500D01*
X136226286Y-86520500D01*
X136226287Y-86520500D01*
X136436243Y-86487246D01*
X136638412Y-86421557D01*
X136827816Y-86325051D01*
X136914138Y-86262335D01*
X136999786Y-86200109D01*
X136999788Y-86200106D01*
X136999792Y-86200104D01*
X137150104Y-86049792D01*
X137150106Y-86049788D01*
X137150109Y-86049786D01*
X137235890Y-85931717D01*
X137275051Y-85877816D01*
X137279793Y-85868508D01*
X137327763Y-85817711D01*
X137395583Y-85800911D01*
X137461719Y-85823445D01*
X137500763Y-85868500D01*
X137505373Y-85877547D01*
X137544728Y-85931716D01*
X138260000Y-85216445D01*
X138260000Y-85222661D01*
X138287259Y-85324394D01*
X138339920Y-85415606D01*
X138414394Y-85490080D01*
X138505606Y-85542741D01*
X138607339Y-85570000D01*
X138613554Y-85570000D01*
X137898282Y-86285269D01*
X137898282Y-86285270D01*
X137952449Y-86324624D01*
X138141782Y-86421095D01*
X138343870Y-86486757D01*
X138553754Y-86520000D01*
X138766246Y-86520000D01*
X138976127Y-86486757D01*
X138976130Y-86486757D01*
X139178217Y-86421095D01*
X139367554Y-86324622D01*
X139421716Y-86285270D01*
X139421717Y-86285270D01*
X138706446Y-85570000D01*
X138712661Y-85570000D01*
X138814394Y-85542741D01*
X138905606Y-85490080D01*
X138980080Y-85415606D01*
X139032741Y-85324394D01*
X139060000Y-85222661D01*
X139060000Y-85216446D01*
X139775270Y-85931717D01*
X139775270Y-85931716D01*
X139814622Y-85877555D01*
X139819232Y-85868507D01*
X139867205Y-85817709D01*
X139935025Y-85800912D01*
X140001161Y-85823447D01*
X140040204Y-85868504D01*
X140044949Y-85877817D01*
X140169890Y-86049786D01*
X140320213Y-86200109D01*
X140492179Y-86325048D01*
X140492181Y-86325049D01*
X140492184Y-86325051D01*
X140681588Y-86421557D01*
X140883757Y-86487246D01*
X141093713Y-86520500D01*
X141093714Y-86520500D01*
X141306286Y-86520500D01*
X141306287Y-86520500D01*
X141516243Y-86487246D01*
X141718412Y-86421557D01*
X141907816Y-86325051D01*
X141994138Y-86262335D01*
X142079786Y-86200109D01*
X142079788Y-86200106D01*
X142079792Y-86200104D01*
X142230104Y-86049792D01*
X142230106Y-86049788D01*
X142230109Y-86049786D01*
X142355048Y-85877820D01*
X142355047Y-85877820D01*
X142355051Y-85877816D01*
X142451557Y-85688412D01*
X142517246Y-85486243D01*
X142550500Y-85276287D01*
X142550500Y-85063713D01*
X142517246Y-84853757D01*
X142451557Y-84651588D01*
X142355051Y-84462184D01*
X142355049Y-84462181D01*
X142355048Y-84462179D01*
X142230109Y-84290213D01*
X142079786Y-84139890D01*
X141907820Y-84014951D01*
X141718414Y-83918444D01*
X141718413Y-83918443D01*
X141718412Y-83918443D01*
X141516243Y-83852754D01*
X141516241Y-83852753D01*
X141516240Y-83852753D01*
X141354957Y-83827208D01*
X141306287Y-83819500D01*
X141093713Y-83819500D01*
X141045042Y-83827208D01*
X140883760Y-83852753D01*
X140681585Y-83918444D01*
X140492179Y-84014951D01*
X140320213Y-84139890D01*
X140169890Y-84290213D01*
X140044949Y-84462182D01*
X140040202Y-84471499D01*
X139992227Y-84522293D01*
X139924405Y-84539087D01*
X139858271Y-84516548D01*
X139819234Y-84471495D01*
X139814626Y-84462452D01*
X139775270Y-84408282D01*
X139775269Y-84408282D01*
X139060000Y-85123552D01*
X139060000Y-85117339D01*
X139032741Y-85015606D01*
X138980080Y-84924394D01*
X138905606Y-84849920D01*
X138814394Y-84797259D01*
X138712661Y-84770000D01*
X138706447Y-84770000D01*
X139421716Y-84054728D01*
X139367550Y-84015375D01*
X139178217Y-83918904D01*
X138976129Y-83853242D01*
X138766246Y-83820000D01*
X138553754Y-83820000D01*
X138343872Y-83853242D01*
X138343869Y-83853242D01*
X138141782Y-83918904D01*
X137952439Y-84015380D01*
X137898282Y-84054727D01*
X137898282Y-84054728D01*
X138613554Y-84770000D01*
X138607339Y-84770000D01*
X138505606Y-84797259D01*
X138414394Y-84849920D01*
X138339920Y-84924394D01*
X138287259Y-85015606D01*
X138260000Y-85117339D01*
X138260000Y-85123554D01*
X137544728Y-84408282D01*
X137544727Y-84408282D01*
X137505380Y-84462440D01*
X137505376Y-84462446D01*
X137500760Y-84471505D01*
X137452781Y-84522297D01*
X137384959Y-84539087D01*
X137318826Y-84516543D01*
X137279794Y-84471493D01*
X137275051Y-84462184D01*
X137275049Y-84462181D01*
X137275048Y-84462179D01*
X137150109Y-84290213D01*
X136999786Y-84139890D01*
X136827820Y-84014951D01*
X136638414Y-83918444D01*
X136638413Y-83918443D01*
X136638412Y-83918443D01*
X136436243Y-83852754D01*
X136436241Y-83852753D01*
X136436240Y-83852753D01*
X136274957Y-83827208D01*
X136226287Y-83819500D01*
X136013713Y-83819500D01*
X135965042Y-83827208D01*
X135803760Y-83852753D01*
X135601585Y-83918444D01*
X135412179Y-84014951D01*
X135240213Y-84139890D01*
X135089890Y-84290213D01*
X134964951Y-84462179D01*
X134868444Y-84651585D01*
X134802753Y-84853760D01*
X134791566Y-84924394D01*
X134769500Y-85063713D01*
X87140500Y-85063713D01*
X87140500Y-74672096D01*
X87160185Y-74605057D01*
X87176815Y-74584419D01*
X87735478Y-74025755D01*
X87796799Y-73992272D01*
X87861473Y-73995506D01*
X87903757Y-74009246D01*
X88113713Y-74042500D01*
X88113714Y-74042500D01*
X88326284Y-74042500D01*
X88326287Y-74042500D01*
X88356103Y-74037777D01*
X88425394Y-74046731D01*
X88478846Y-74091726D01*
X88499487Y-74158477D01*
X88499500Y-74160250D01*
X88499500Y-78560397D01*
X88479815Y-78627436D01*
X88431800Y-78670879D01*
X88418389Y-78677712D01*
X88252786Y-78798028D01*
X88108028Y-78942786D01*
X87987715Y-79108386D01*
X87894781Y-79290776D01*
X87831522Y-79485465D01*
X87799500Y-79687648D01*
X87799500Y-79892351D01*
X87831522Y-80094534D01*
X87894781Y-80289223D01*
X87987715Y-80471613D01*
X88108028Y-80637213D01*
X88252786Y-80781971D01*
X88407749Y-80894556D01*
X88418390Y-80902287D01*
X88534607Y-80961503D01*
X88600776Y-80995218D01*
X88600778Y-80995218D01*
X88600781Y-80995220D01*
X88705137Y-81029127D01*
X88795465Y-81058477D01*
X88896557Y-81074488D01*
X88997648Y-81090500D01*
X88997649Y-81090500D01*
X89202351Y-81090500D01*
X89202352Y-81090500D01*
X89404534Y-81058477D01*
X89599219Y-80995220D01*
X89781610Y-80902287D01*
X89874590Y-80834732D01*
X89947213Y-80781971D01*
X89947215Y-80781968D01*
X89947219Y-80781966D01*
X90091966Y-80637219D01*
X90091968Y-80637215D01*
X90091971Y-80637213D01*
X90144732Y-80564590D01*
X90212287Y-80471610D01*
X90305220Y-80289219D01*
X90368477Y-80094534D01*
X90400500Y-79892352D01*
X90400500Y-79687648D01*
X90381427Y-79567225D01*
X90368477Y-79485465D01*
X90305218Y-79290776D01*
X90264118Y-79210114D01*
X90212287Y-79108390D01*
X90183463Y-79068717D01*
X90112851Y-78971526D01*
X90112848Y-78971523D01*
X90094018Y-78945606D01*
X90091966Y-78942781D01*
X89947219Y-78798034D01*
X89947213Y-78798028D01*
X89781610Y-78677712D01*
X89768200Y-78670879D01*
X89717406Y-78622903D01*
X89700500Y-78560397D01*
X89700500Y-75321097D01*
X89720185Y-75254058D01*
X89772989Y-75208303D01*
X89842147Y-75198359D01*
X89905703Y-75227384D01*
X89912181Y-75233416D01*
X90743139Y-76064374D01*
X90743149Y-76064385D01*
X90747479Y-76068715D01*
X90747480Y-76068716D01*
X90859284Y-76180520D01*
X90859286Y-76180521D01*
X90859290Y-76180524D01*
X90983811Y-76252415D01*
X90996216Y-76259577D01*
X91108019Y-76289534D01*
X91148942Y-76300500D01*
X91148943Y-76300500D01*
X109929903Y-76300500D01*
X109996942Y-76320185D01*
X110017584Y-76336819D01*
X110887701Y-77206936D01*
X110921186Y-77268259D01*
X110919013Y-77298638D01*
X110920000Y-77298638D01*
X110920000Y-78384314D01*
X110915606Y-78379920D01*
X110824394Y-78327259D01*
X110722661Y-78300000D01*
X110617339Y-78300000D01*
X110515606Y-78327259D01*
X110424394Y-78379920D01*
X110420000Y-78384314D01*
X110420000Y-77350000D01*
X109772155Y-77350000D01*
X109712627Y-77356401D01*
X109712620Y-77356403D01*
X109577913Y-77406645D01*
X109577906Y-77406649D01*
X109462812Y-77492809D01*
X109462809Y-77492812D01*
X109376649Y-77607906D01*
X109376645Y-77607913D01*
X109326403Y-77742620D01*
X109326401Y-77742627D01*
X109320000Y-77802155D01*
X109320000Y-78450000D01*
X110354314Y-78450000D01*
X110349920Y-78454394D01*
X110297259Y-78545606D01*
X110270000Y-78647339D01*
X110270000Y-78752661D01*
X110297259Y-78854394D01*
X110349920Y-78945606D01*
X110354314Y-78950000D01*
X109320000Y-78950000D01*
X109320000Y-79597844D01*
X109326401Y-79657372D01*
X109326403Y-79657379D01*
X109376645Y-79792086D01*
X109376649Y-79792093D01*
X109462809Y-79907187D01*
X109462812Y-79907190D01*
X109577906Y-79993350D01*
X109577913Y-79993354D01*
X109712620Y-80043596D01*
X109712627Y-80043598D01*
X109772155Y-80049999D01*
X109772172Y-80050000D01*
X110420000Y-80050000D01*
X110420000Y-79015686D01*
X110424394Y-79020080D01*
X110515606Y-79072741D01*
X110617339Y-79100000D01*
X110722661Y-79100000D01*
X110824394Y-79072741D01*
X110915606Y-79020080D01*
X110920000Y-79015686D01*
X110920000Y-80050000D01*
X111567828Y-80050000D01*
X111567844Y-80049999D01*
X111627372Y-80043598D01*
X111627379Y-80043596D01*
X111762086Y-79993354D01*
X111762093Y-79993350D01*
X111877187Y-79907190D01*
X111877190Y-79907187D01*
X111963350Y-79792093D01*
X111963354Y-79792086D01*
X112016309Y-79650108D01*
X112018300Y-79650850D01*
X112047454Y-79599625D01*
X112109357Y-79567225D01*
X112178950Y-79573435D01*
X112221259Y-79601155D01*
X112350213Y-79730109D01*
X112522179Y-79855048D01*
X112522181Y-79855049D01*
X112522184Y-79855051D01*
X112711588Y-79951557D01*
X112913757Y-80017246D01*
X113123713Y-80050500D01*
X113123714Y-80050500D01*
X113336286Y-80050500D01*
X113336287Y-80050500D01*
X113546243Y-80017246D01*
X113748412Y-79951557D01*
X113937816Y-79855051D01*
X114024471Y-79792093D01*
X114109786Y-79730109D01*
X114109788Y-79730106D01*
X114109792Y-79730104D01*
X114260104Y-79579792D01*
X114260106Y-79579788D01*
X114260109Y-79579786D01*
X114385048Y-79407820D01*
X114385047Y-79407820D01*
X114385051Y-79407816D01*
X114389514Y-79399054D01*
X114437488Y-79348259D01*
X114505308Y-79331463D01*
X114571444Y-79353999D01*
X114610486Y-79399056D01*
X114614951Y-79407820D01*
X114739890Y-79579786D01*
X114890213Y-79730109D01*
X115062179Y-79855048D01*
X115062181Y-79855049D01*
X115062184Y-79855051D01*
X115251588Y-79951557D01*
X115453757Y-80017246D01*
X115663713Y-80050500D01*
X115663714Y-80050500D01*
X115876286Y-80050500D01*
X115876287Y-80050500D01*
X116086243Y-80017246D01*
X116288412Y-79951557D01*
X116477816Y-79855051D01*
X116564471Y-79792093D01*
X116649786Y-79730109D01*
X116649788Y-79730106D01*
X116649792Y-79730104D01*
X116800104Y-79579792D01*
X116800106Y-79579788D01*
X116800109Y-79579786D01*
X116925048Y-79407820D01*
X116925047Y-79407820D01*
X116925051Y-79407816D01*
X116929514Y-79399054D01*
X116977488Y-79348259D01*
X117045308Y-79331463D01*
X117111444Y-79353999D01*
X117150486Y-79399056D01*
X117154951Y-79407820D01*
X117279890Y-79579786D01*
X117430213Y-79730109D01*
X117602179Y-79855048D01*
X117602181Y-79855049D01*
X117602184Y-79855051D01*
X117791588Y-79951557D01*
X117993757Y-80017246D01*
X118203713Y-80050500D01*
X118203714Y-80050500D01*
X118416286Y-80050500D01*
X118416287Y-80050500D01*
X118626243Y-80017246D01*
X118828412Y-79951557D01*
X119017816Y-79855051D01*
X119104471Y-79792093D01*
X119189786Y-79730109D01*
X119189788Y-79730106D01*
X119189792Y-79730104D01*
X119340104Y-79579792D01*
X119340106Y-79579788D01*
X119340109Y-79579786D01*
X119465048Y-79407820D01*
X119465047Y-79407820D01*
X119465051Y-79407816D01*
X119561557Y-79218412D01*
X119627246Y-79016243D01*
X119660500Y-78806287D01*
X119660500Y-78593713D01*
X119627246Y-78383757D01*
X119561557Y-78181588D01*
X119465051Y-77992184D01*
X119465049Y-77992181D01*
X119465048Y-77992179D01*
X119340109Y-77820213D01*
X119189786Y-77669890D01*
X119017820Y-77544951D01*
X118828414Y-77448444D01*
X118828413Y-77448443D01*
X118828412Y-77448443D01*
X118626243Y-77382754D01*
X118626241Y-77382753D01*
X118626240Y-77382753D01*
X118464957Y-77357208D01*
X118416287Y-77349500D01*
X118203713Y-77349500D01*
X118155042Y-77357208D01*
X117993760Y-77382753D01*
X117791585Y-77448444D01*
X117602179Y-77544951D01*
X117430213Y-77669890D01*
X117279890Y-77820213D01*
X117154949Y-77992182D01*
X117150484Y-78000946D01*
X117102509Y-78051742D01*
X117034688Y-78068536D01*
X116968553Y-78045998D01*
X116929516Y-78000946D01*
X116925050Y-77992182D01*
X116800109Y-77820213D01*
X116649786Y-77669890D01*
X116477820Y-77544951D01*
X116288414Y-77448444D01*
X116288413Y-77448443D01*
X116288412Y-77448443D01*
X116086243Y-77382754D01*
X116086241Y-77382753D01*
X116086240Y-77382753D01*
X115924957Y-77357208D01*
X115876287Y-77349500D01*
X115663713Y-77349500D01*
X115615042Y-77357208D01*
X115453760Y-77382753D01*
X115251585Y-77448444D01*
X115062179Y-77544951D01*
X114890213Y-77669890D01*
X114739890Y-77820213D01*
X114614949Y-77992182D01*
X114610484Y-78000946D01*
X114562509Y-78051742D01*
X114494688Y-78068536D01*
X114428553Y-78045998D01*
X114389516Y-78000946D01*
X114385050Y-77992182D01*
X114260109Y-77820213D01*
X114109786Y-77669890D01*
X113937820Y-77544951D01*
X113748414Y-77448444D01*
X113748413Y-77448443D01*
X113748412Y-77448443D01*
X113546243Y-77382754D01*
X113546241Y-77382753D01*
X113546240Y-77382753D01*
X113384957Y-77357208D01*
X113336287Y-77349500D01*
X113123713Y-77349500D01*
X113099045Y-77353407D01*
X112913757Y-77382753D01*
X112871473Y-77396492D01*
X112801632Y-77398486D01*
X112745476Y-77366241D01*
X111891416Y-76512181D01*
X111857931Y-76450858D01*
X111862915Y-76381166D01*
X111904787Y-76325233D01*
X111970251Y-76300816D01*
X111979097Y-76300500D01*
X134030939Y-76300500D01*
X134030943Y-76300501D01*
X134189057Y-76300501D01*
X134189061Y-76300500D01*
X140023331Y-76300500D01*
X140023347Y-76300501D01*
X140030943Y-76300501D01*
X140196653Y-76300501D01*
X140196669Y-76300500D01*
X142050883Y-76300500D01*
X142050899Y-76300501D01*
X142058495Y-76300501D01*
X142216606Y-76300501D01*
X142216609Y-76300501D01*
X142369337Y-76259577D01*
X142440976Y-76218216D01*
X142506268Y-76180520D01*
X142618072Y-76068716D01*
X142618072Y-76068714D01*
X142628276Y-76058511D01*
X142628279Y-76058506D01*
X144905442Y-73781344D01*
X144966763Y-73747861D01*
X145036455Y-73752845D01*
X145092388Y-73794717D01*
X145116805Y-73860181D01*
X145117121Y-73869027D01*
X145117121Y-76087837D01*
X145097436Y-76154876D01*
X145044632Y-76200631D01*
X145019080Y-76209089D01*
X145014828Y-76209999D01*
X144848289Y-76265185D01*
X144848284Y-76265187D01*
X144698963Y-76357289D01*
X144574910Y-76481342D01*
X144482808Y-76630663D01*
X144482806Y-76630668D01*
X144475479Y-76652781D01*
X144427622Y-76797203D01*
X144427622Y-76797204D01*
X144427621Y-76797204D01*
X144417121Y-76899983D01*
X144417121Y-78100001D01*
X144417122Y-78100018D01*
X144427621Y-78202796D01*
X144427622Y-78202799D01*
X144449628Y-78269208D01*
X144482807Y-78369334D01*
X144574909Y-78518656D01*
X144698965Y-78642712D01*
X144848287Y-78734814D01*
X145014824Y-78789999D01*
X145014830Y-78789999D01*
X145019069Y-78790907D01*
X145080505Y-78824185D01*
X145114197Y-78885394D01*
X145117121Y-78912162D01*
X145117121Y-83854921D01*
X145097436Y-83921960D01*
X145049417Y-83965405D01*
X144952182Y-84014949D01*
X144780213Y-84139890D01*
X144629890Y-84290213D01*
X144504951Y-84462179D01*
X144408444Y-84651585D01*
X144342753Y-84853760D01*
X144331566Y-84924394D01*
X144309500Y-85063713D01*
X144309500Y-85276287D01*
X144342754Y-85486243D01*
X144369968Y-85570000D01*
X144408444Y-85688414D01*
X144504951Y-85877820D01*
X144629890Y-86049786D01*
X144780213Y-86200109D01*
X144952179Y-86325048D01*
X144952181Y-86325049D01*
X144952184Y-86325051D01*
X145141588Y-86421557D01*
X145343757Y-86487246D01*
X145553713Y-86520500D01*
X145553714Y-86520500D01*
X145766286Y-86520500D01*
X145766287Y-86520500D01*
X145976243Y-86487246D01*
X146178412Y-86421557D01*
X146367816Y-86325051D01*
X146454138Y-86262335D01*
X146539786Y-86200109D01*
X146539788Y-86200106D01*
X146539792Y-86200104D01*
X146690104Y-86049792D01*
X146690106Y-86049788D01*
X146690109Y-86049786D01*
X146815048Y-85877820D01*
X146815047Y-85877820D01*
X146815051Y-85877816D01*
X146819514Y-85869054D01*
X146867488Y-85818259D01*
X146935308Y-85801463D01*
X147001444Y-85823999D01*
X147040486Y-85869056D01*
X147044951Y-85877820D01*
X147169890Y-86049786D01*
X147320213Y-86200109D01*
X147492179Y-86325048D01*
X147492181Y-86325049D01*
X147492184Y-86325051D01*
X147681588Y-86421557D01*
X147883757Y-86487246D01*
X148093713Y-86520500D01*
X148093714Y-86520500D01*
X148306286Y-86520500D01*
X148306287Y-86520500D01*
X148516243Y-86487246D01*
X148718412Y-86421557D01*
X148907816Y-86325051D01*
X148994138Y-86262335D01*
X149079786Y-86200109D01*
X149079788Y-86200106D01*
X149079792Y-86200104D01*
X149230104Y-86049792D01*
X149230106Y-86049788D01*
X149230109Y-86049786D01*
X149355048Y-85877820D01*
X149355047Y-85877820D01*
X149355051Y-85877816D01*
X149451557Y-85688412D01*
X149517246Y-85486243D01*
X149550500Y-85276287D01*
X149550500Y-85063713D01*
X149517246Y-84853757D01*
X149451557Y-84651588D01*
X149355051Y-84462184D01*
X149355049Y-84462181D01*
X149355048Y-84462179D01*
X149230109Y-84290213D01*
X149079786Y-84139890D01*
X148907819Y-84014950D01*
X148885824Y-84003743D01*
X148835029Y-83955767D01*
X148818121Y-83893259D01*
X148818121Y-78729601D01*
X148837806Y-78662562D01*
X148885827Y-78619116D01*
X148899231Y-78612287D01*
X149064840Y-78491966D01*
X149209587Y-78347219D01*
X149209589Y-78347215D01*
X149209592Y-78347213D01*
X149314513Y-78202799D01*
X149329908Y-78181610D01*
X149422841Y-77999219D01*
X149486098Y-77804534D01*
X149518121Y-77602352D01*
X149518121Y-77397648D01*
X149502439Y-77298638D01*
X149486098Y-77195465D01*
X149442473Y-77061203D01*
X149422841Y-77000781D01*
X149422839Y-77000778D01*
X149422839Y-77000776D01*
X149371486Y-76899991D01*
X149329908Y-76818390D01*
X149280290Y-76750096D01*
X149209592Y-76652786D01*
X149064834Y-76508028D01*
X148899231Y-76387712D01*
X148885821Y-76380879D01*
X148835027Y-76332903D01*
X148818121Y-76270397D01*
X148818121Y-74882476D01*
X148837806Y-74815437D01*
X148854440Y-74794795D01*
X153002645Y-70646590D01*
X157369733Y-66279501D01*
X157431054Y-66246018D01*
X157500746Y-66251002D01*
X157556679Y-66292874D01*
X157581096Y-66358338D01*
X157568075Y-66420975D01*
X157568422Y-66421114D01*
X157567640Y-66423071D01*
X157567325Y-66424587D01*
X157566091Y-66426949D01*
X157510114Y-66622583D01*
X157510113Y-66622586D01*
X157499500Y-66741966D01*
X157499500Y-67858028D01*
X157499501Y-67858034D01*
X157510113Y-67977415D01*
X157566089Y-68173045D01*
X157566090Y-68173048D01*
X157566091Y-68173049D01*
X157660302Y-68353407D01*
X157785811Y-68507332D01*
X157812920Y-68571727D01*
X157800911Y-68640557D01*
X157777390Y-68673373D01*
X152341286Y-74109478D01*
X152229481Y-74221282D01*
X152229480Y-74221284D01*
X152188108Y-74292943D01*
X152150423Y-74358215D01*
X152109499Y-74510943D01*
X152109499Y-74510945D01*
X152109499Y-74679046D01*
X152109500Y-74679059D01*
X152109500Y-83884281D01*
X152089815Y-83951320D01*
X152041795Y-83994765D01*
X152002185Y-84014947D01*
X152002184Y-84014948D01*
X151830213Y-84139890D01*
X151679890Y-84290213D01*
X151554951Y-84462179D01*
X151458444Y-84651585D01*
X151392753Y-84853760D01*
X151381566Y-84924394D01*
X151359500Y-85063713D01*
X151359500Y-85276287D01*
X151392754Y-85486243D01*
X151419968Y-85570000D01*
X151458444Y-85688414D01*
X151554951Y-85877820D01*
X151679890Y-86049786D01*
X151830213Y-86200109D01*
X152002179Y-86325048D01*
X152002181Y-86325049D01*
X152002184Y-86325051D01*
X152191588Y-86421557D01*
X152393757Y-86487246D01*
X152603713Y-86520500D01*
X152603714Y-86520500D01*
X152816286Y-86520500D01*
X152816287Y-86520500D01*
X153026243Y-86487246D01*
X153228412Y-86421557D01*
X153417816Y-86325051D01*
X153504138Y-86262335D01*
X153589786Y-86200109D01*
X153589788Y-86200106D01*
X153589792Y-86200104D01*
X153740104Y-86049792D01*
X153740106Y-86049788D01*
X153740109Y-86049786D01*
X153865048Y-85877820D01*
X153865047Y-85877820D01*
X153865051Y-85877816D01*
X153869514Y-85869054D01*
X153917488Y-85818259D01*
X153985308Y-85801463D01*
X154051444Y-85823999D01*
X154090486Y-85869056D01*
X154094951Y-85877820D01*
X154219890Y-86049786D01*
X154370213Y-86200109D01*
X154542179Y-86325048D01*
X154542181Y-86325049D01*
X154542184Y-86325051D01*
X154731588Y-86421557D01*
X154933757Y-86487246D01*
X155143713Y-86520500D01*
X155143714Y-86520500D01*
X155356286Y-86520500D01*
X155356287Y-86520500D01*
X155566243Y-86487246D01*
X155768412Y-86421557D01*
X155957816Y-86325051D01*
X156044138Y-86262335D01*
X156129786Y-86200109D01*
X156129788Y-86200106D01*
X156129792Y-86200104D01*
X156280104Y-86049792D01*
X156280106Y-86049788D01*
X156280109Y-86049786D01*
X156405048Y-85877820D01*
X156405047Y-85877820D01*
X156405051Y-85877816D01*
X156409514Y-85869054D01*
X156457488Y-85818259D01*
X156525308Y-85801463D01*
X156591444Y-85823999D01*
X156630486Y-85869056D01*
X156634951Y-85877820D01*
X156759890Y-86049786D01*
X156910213Y-86200109D01*
X157082179Y-86325048D01*
X157082181Y-86325049D01*
X157082184Y-86325051D01*
X157271588Y-86421557D01*
X157473757Y-86487246D01*
X157683713Y-86520500D01*
X157683714Y-86520500D01*
X157896286Y-86520500D01*
X157896287Y-86520500D01*
X158106243Y-86487246D01*
X158308412Y-86421557D01*
X158497816Y-86325051D01*
X158669792Y-86200104D01*
X158783329Y-86086566D01*
X158844648Y-86053084D01*
X158914340Y-86058068D01*
X158970274Y-86099939D01*
X158987189Y-86130917D01*
X159036202Y-86262328D01*
X159036206Y-86262335D01*
X159122452Y-86377544D01*
X159122455Y-86377547D01*
X159237664Y-86463793D01*
X159237671Y-86463797D01*
X159372517Y-86514091D01*
X159372516Y-86514091D01*
X159379444Y-86514835D01*
X159432127Y-86520500D01*
X161227872Y-86520499D01*
X161287483Y-86514091D01*
X161422331Y-86463796D01*
X161537546Y-86377546D01*
X161623796Y-86262331D01*
X161674091Y-86127483D01*
X161680500Y-86067873D01*
X161680499Y-84272128D01*
X161674091Y-84212517D01*
X161672810Y-84209083D01*
X161623797Y-84077671D01*
X161623793Y-84077664D01*
X161537547Y-83962455D01*
X161537544Y-83962452D01*
X161422335Y-83876206D01*
X161422328Y-83876202D01*
X161287482Y-83825908D01*
X161287483Y-83825908D01*
X161227883Y-83819501D01*
X161227881Y-83819500D01*
X161227873Y-83819500D01*
X161227865Y-83819500D01*
X160724500Y-83819500D01*
X160657461Y-83799815D01*
X160611706Y-83747011D01*
X160600500Y-83695500D01*
X160600500Y-82324499D01*
X160620185Y-82257460D01*
X160672989Y-82211705D01*
X160724500Y-82200499D01*
X161558028Y-82200499D01*
X161558036Y-82200499D01*
X161677418Y-82189886D01*
X161873049Y-82133909D01*
X162053407Y-82039698D01*
X162211109Y-81911109D01*
X162339698Y-81753407D01*
X162433909Y-81573049D01*
X162456284Y-81494850D01*
X162493651Y-81435813D01*
X162557005Y-81406349D01*
X162626230Y-81415814D01*
X162679349Y-81461203D01*
X162699497Y-81528104D01*
X162699500Y-81528962D01*
X162699500Y-104375500D01*
X162679815Y-104442539D01*
X162627011Y-104488294D01*
X162575500Y-104499500D01*
X77624500Y-104499500D01*
X77557461Y-104479815D01*
X77511706Y-104427011D01*
X77500500Y-104375500D01*
X77500500Y-45624500D01*
X77520185Y-45557461D01*
X77572989Y-45511706D01*
X77624500Y-45500500D01*
X162575500Y-45500500D01*
X162642539Y-45520185D01*
G37*
G04 #@! TD.AperFunction*
M02*
