M48
; DRILL file {KiCad 9.0.8} date 2026-07-28T14:40:35-0400
; FORMAT={-:-/ absolute / metric / decimal}
; #@! TF.CreationDate,2026-07-28T14:40:35-04:00
; #@! TF.GenerationSoftware,Kicad,Pcbnew,9.0.8
; #@! TF.FileFunction,Plated,1,2,PTH
FMAT,2
METRIC
; #@! TA.AperFunction,Plated,PTH,ComponentDrill
T1C0.800
%
G90
G05
T1
X84.0Y-95.8
X86.54Y-95.8
X88.22Y-47.8
X88.22Y-72.692
X89.08Y-95.8
X89.1Y-79.79
X89.1Y-87.41
X90.76Y-47.8
X90.76Y-72.692
X91.62Y-95.8
X93.3Y-47.8
X93.3Y-72.692
X94.16Y-95.8
X95.84Y-47.8
X95.84Y-72.692
X98.38Y-47.8
X98.38Y-72.692
X100.92Y-47.8
X100.92Y-72.692
X103.46Y-47.8
X103.46Y-72.692
X106.0Y-47.8
X106.0Y-72.692
X108.54Y-47.8
X108.54Y-72.692
X110.67Y-78.7
X111.08Y-47.8
X111.08Y-72.692
X113.23Y-78.7
X113.62Y-47.8
X113.62Y-72.692
X115.77Y-78.7
X116.16Y-47.8
X116.16Y-72.692
X118.31Y-78.7
X118.7Y-47.8
X118.7Y-72.692
X121.24Y-47.8
X121.24Y-72.692
X123.526Y-47.8
X123.78Y-72.692
X136.12Y-85.17
X138.66Y-85.17
X141.2Y-85.17
X142.0Y-60.19
X142.0Y-67.81
X143.0Y-53.4
X145.54Y-53.4
X145.66Y-85.17
X145.718Y-77.5
X148.0Y-60.19
X148.0Y-67.81
X148.08Y-53.4
X148.2Y-85.17
X148.218Y-77.5
X150.62Y-53.4
X152.71Y-85.17
X155.25Y-85.17
X157.79Y-85.17
X160.33Y-85.17
M30
